<svg width="383" height="296" viewBox="0 0 383 296" fill="none" xmlns="http://www.w3.org/2000/svg">
<path opacity="0.152" fill-rule="evenodd" clip-rule="evenodd" d="M199.5 106.5C207.612 146.659 319.506 208.19 326.136 274.206C333.254 256.454 376.017 212.82 365.5 196C356.586 181.745 352.475 153.979 346.154 142.277C334.115 119.995 397.759 63.6588 356.344 28.0688C341.725 15.5038 310.583 12.6038 276.604 14.5538C211.5 28.069 192.181 70.2468 199.5 106.5Z" fill="#E4DCF1"/>
<mask id="mask0_105_254" style="mask-type:luminance" maskUnits="userSpaceOnUse" x="0" y="0" width="350" height="296">
<path d="M350 0H0.218811V295.952H350V0Z" fill="white"/>
</mask>
<g mask="url(#mask0_105_254)">
<path d="M30.2207 87C38.6269 87 45.4414 79.8366 45.4414 71C45.4414 62.1634 38.6269 55 30.2207 55C21.8145 55 15 62.1634 15 71C15 79.8366 21.8145 87 30.2207 87Z" fill="#8BBFF7"/>
<path opacity="0.5" d="M171.012 61H62.5647C60.9885 61 59.7108 62.3431 59.7108 64C59.7108 65.6569 60.9885 67 62.5647 67H171.012C172.588 67 173.866 65.6569 173.866 64C173.866 62.3431 172.588 61 171.012 61Z" fill="#242A45"/>
<path opacity="0.25" d="M117.74 75H62.5647C60.9885 75 59.7108 76.3431 59.7108 78C59.7108 79.6569 60.9885 81 62.5647 81H117.74C119.316 81 120.594 79.6569 120.594 78C120.594 76.3431 119.316 75 117.74 75Z" fill="#242A45"/>
<path d="M30.2207 156C38.6269 156 45.4414 148.837 45.4414 140C45.4414 131.163 38.6269 124 30.2207 124C21.8145 124 15 131.163 15 140C15 148.837 21.8145 156 30.2207 156Z" fill="#8BBFF7"/>
<path opacity="0.5" d="M171.012 130H62.5647C60.9885 130 59.7108 131.343 59.7108 133C59.7108 134.657 60.9885 136 62.5647 136H171.012C172.588 136 173.866 134.657 173.866 133C173.866 131.343 172.588 130 171.012 130Z" fill="#242A45"/>
<path opacity="0.25" d="M117.74 144H62.5647C60.9885 144 59.7108 145.343 59.7108 147C59.7108 148.657 60.9885 150 62.5647 150H117.74C119.316 150 120.594 148.657 120.594 147C120.594 145.343 119.316 144 117.74 144Z" fill="#242A45"/>
<path d="M30.2207 225C38.6269 225 45.4414 217.837 45.4414 209C45.4414 200.163 38.6269 193 30.2207 193C21.8145 193 15 200.163 15 209C15 217.837 21.8145 225 30.2207 225Z" fill="#8BBFF7"/>
<path opacity="0.5" d="M171.012 199H62.5647C60.9885 199 59.7108 200.343 59.7108 202C59.7108 203.657 60.9885 205 62.5647 205H171.012C172.588 205 173.866 203.657 173.866 202C173.866 200.343 172.588 199 171.012 199Z" fill="#242A45"/>
<path opacity="0.25" d="M117.74 213H62.5647C60.9885 213 59.7108 214.343 59.7108 216C59.7108 217.657 60.9885 219 62.5647 219H117.74C119.316 219 120.594 217.657 120.594 216C120.594 214.343 119.316 213 117.74 213Z" fill="#242A45"/>
</g>
<path fill-rule="evenodd" clip-rule="evenodd" d="M193.672 271H322.331C327.12 271 331.002 267.092 331.002 262.27V41.73C331.002 36.908 327.12 33 322.331 33H193.671C188.882 33 185 36.908 185 41.73V262.27C185 267.092 188.882 271 193.671 271" fill="white"/>
<path fill-rule="evenodd" clip-rule="evenodd" d="M193.001 64.719V163.377C193.001 165.406 194.457 167.048 196.254 167.048H319.748C321.545 167.048 323.001 165.406 323.001 163.377V64.719C323.001 62.6905 321.545 61.0481 319.748 61.0481H196.254C194.457 61.0481 193.001 62.6905 193.001 64.719Z" fill="#E4DCF1"/>
<path fill-rule="evenodd" clip-rule="evenodd" d="M200.548 201H318.454C319.861 201 321.001 199.92 321.001 198.59V195.41C321.001 194.08 319.861 193 318.454 193H200.548C199.141 193 198.001 194.08 198.001 195.41V198.59C198.001 199.92 199.141 201 200.548 201ZM318.454 217C319.861 217 321.001 215.92 321.001 214.59V211.41C321.001 210.08 319.861 209 318.454 209H200.548C199.141 209 198.001 210.08 198.001 211.41V214.59C198.001 215.92 199.141 217 200.548 217H318.454ZM200.548 233H318.454C319.861 233 321.001 231.92 321.001 230.59V227.41C321.001 226.08 319.861 225 318.454 225H200.548C199.141 225 198.001 226.08 198.001 227.41V230.59C198.001 231.92 199.141 233 200.548 233ZM200.548 246H318.454C319.861 246 321.001 244.92 321.001 243.59V240.41C321.001 239.08 319.861 238 318.454 238H200.548C199.141 238 198.001 239.08 198.001 240.41V243.59C198.001 244.92 199.141 246 200.548 246Z" fill="#F4F2F9"/>
<path d="M199.001 161.69H283.872" stroke="#263238" stroke-width="1.06068" stroke-miterlimit="10"/>
<path d="M199.001 161.691V159.884" stroke="#263238" stroke-width="1.06068" stroke-miterlimit="10"/>
<path d="M215.973 161.691V159.884" stroke="#263238" stroke-width="1.06068" stroke-miterlimit="10"/>
<path d="M232.951 161.691V159.884" stroke="#263238" stroke-width="1.06068" stroke-miterlimit="10"/>
<path d="M249.923 161.691V159.884" stroke="#263238" stroke-width="1.06068" stroke-miterlimit="10"/>
<path d="M266.894 161.691V159.884" stroke="#263238" stroke-width="1.06068" stroke-miterlimit="10"/>
<path d="M283.872 161.691V159.884" stroke="#263238" stroke-width="1.06068" stroke-miterlimit="10"/>
<path d="M213.597 137.568H201.377V152.039H213.597V137.568Z" fill="#E5E5E5" stroke="#263238" stroke-width="1.06068" stroke-miterlimit="10"/>
<path d="M230.569 120.683H218.348V154.452H230.569V120.683Z" fill="#E5E5E5" stroke="#263238" stroke-width="1.06068" stroke-miterlimit="10"/>
<path d="M247.547 97.0481H235.326V134.68H247.547V97.0481Z" fill="#E5E5E5" stroke="#263238" stroke-width="1.06068" stroke-miterlimit="10"/>
<path d="M264.519 132.267H252.298V139.505H264.519V132.267Z" fill="#E5E5E5" stroke="#263238" stroke-width="1.06068" stroke-miterlimit="10"/>
<path d="M281.49 127.922H269.27V146.738H281.49V127.922Z" fill="#E5E5E5" stroke="#263238" stroke-width="1.06068" stroke-miterlimit="10"/>
<path d="M213.597 152.045H201.377V161.697H213.597V152.045Z" fill="#263238" stroke="#263238" stroke-width="1.06068" stroke-miterlimit="10"/>
<path d="M230.569 154.458H218.348V161.697H230.569V154.458Z" fill="#263238" stroke="#263238" stroke-width="1.06068" stroke-miterlimit="10"/>
<path d="M247.547 134.673H235.326V161.691H247.547V134.673Z" fill="#263238" stroke="#263238" stroke-width="1.06068" stroke-miterlimit="10"/>
<path d="M264.519 139.499H252.298V161.691H264.519V139.499Z" fill="#263238" stroke="#263238" stroke-width="1.06068" stroke-miterlimit="10"/>
<path d="M281.49 146.738H269.27V161.691H281.49V146.738Z" fill="#263238" stroke="#263238" stroke-width="1.06068" stroke-miterlimit="10"/>
<path d="M283.099 102.048C281.102 102.048 279.15 101.403 277.489 100.194C275.828 98.9855 274.534 97.2676 273.77 95.2576C273.006 93.2476 272.806 91.0359 273.195 88.9021C273.585 86.7683 274.547 84.8083 275.959 83.2699C277.371 81.7315 279.17 80.6839 281.129 80.2595C283.088 79.835 285.118 80.0529 286.963 80.8854C288.808 81.718 290.385 83.1279 291.495 84.9368C292.605 86.7458 293.197 88.8725 293.197 91.0481C293.194 93.9645 292.129 96.7606 290.236 98.8229C288.343 100.885 285.776 102.045 283.099 102.048ZM283.099 83.2785C281.688 83.2792 280.31 83.7355 279.137 84.5897C277.965 85.4439 277.051 86.6576 276.512 88.0774C275.973 89.4972 275.832 91.0593 276.108 92.5662C276.383 94.0731 277.063 95.4571 278.06 96.5434C279.058 97.6296 280.329 98.3692 281.712 98.6687C283.096 98.9682 284.53 98.8141 285.833 98.2259C287.136 97.6377 288.25 96.6419 289.033 95.3642C289.817 94.0866 290.235 92.5846 290.235 91.0481C290.233 88.9874 289.48 87.0118 288.143 85.555C286.805 84.0983 284.991 83.2795 283.099 83.2785Z" fill="#263238" stroke="#263238" stroke-width="1.06068" stroke-miterlimit="10"/>
<path d="M283.099 102.048C281.736 102.053 280.387 101.754 279.133 101.171C277.88 100.589 276.749 99.7332 275.809 98.6579L277.951 96.4244C278.614 97.1841 279.413 97.7882 280.298 98.1998C281.183 98.6113 282.136 98.8216 283.099 98.8177C284.036 98.8177 284.963 98.6167 285.828 98.2262C286.694 97.8358 287.48 97.2635 288.142 96.542C288.805 95.8205 289.33 94.964 289.688 94.0214C290.047 93.0787 290.231 92.0684 290.231 91.0481C290.231 90.0277 290.047 89.0174 289.688 88.0748C289.33 87.1321 288.805 86.2756 288.142 85.5541C287.48 84.8326 286.694 84.2603 285.828 83.8699C284.963 83.4794 284.036 83.2785 283.099 83.2785V80.0481C284.425 80.0481 285.738 80.3326 286.963 80.8854C288.188 81.4382 289.302 82.2485 290.239 83.2699C291.177 84.2913 291.921 85.504 292.428 86.8386C292.936 88.1731 293.197 89.6035 293.197 91.0481C293.197 92.4926 292.936 93.923 292.428 95.2576C291.921 96.5921 291.177 97.8048 290.239 98.8262C289.302 99.8477 288.188 100.658 286.963 101.211C285.738 101.764 284.425 102.048 283.099 102.048Z" fill="#8BBFF7" stroke="#263238" stroke-width="1.06068" stroke-miterlimit="10"/>
<path d="M308.003 102.048C306.006 102.049 304.053 101.404 302.392 100.196C300.731 98.9878 299.436 97.2701 298.671 95.2602C297.906 93.2503 297.706 91.0385 298.095 88.9044C298.484 86.7704 299.446 84.81 300.858 83.2713C302.27 81.7325 304.069 80.6845 306.028 80.2597C307.987 79.835 310.018 80.0526 311.863 80.8851C313.708 81.7175 315.286 83.1274 316.395 84.9364C317.505 86.7454 318.097 88.8723 318.097 91.0481C318.094 93.9639 317.03 96.7594 315.138 98.8216C313.245 100.884 310.68 102.044 308.003 102.048ZM308.003 83.2785C306.593 83.28 305.214 83.7369 304.042 84.5916C302.87 85.4462 301.957 86.6602 301.418 88.08C300.88 89.4999 300.739 91.0619 301.015 92.5685C301.291 94.0752 301.971 95.4589 302.969 96.5447C303.967 97.6305 305.238 98.3698 306.621 98.669C308.004 98.9681 309.438 98.8138 310.741 98.2255C312.044 97.6372 313.157 96.6414 313.941 95.3638C314.724 94.0863 315.142 92.5844 315.142 91.0481C315.14 88.9871 314.386 87.0114 313.048 85.5548C311.709 84.0981 309.895 83.2795 308.003 83.2785Z" fill="#263238" stroke="#263238" stroke-width="1.06068" stroke-miterlimit="10"/>
<path d="M311.932 101.181L310.78 98.2089C312.294 97.5095 313.541 96.2614 314.308 94.6759C315.075 93.0904 315.315 91.2648 314.989 89.5083C314.662 87.7518 313.788 86.1722 312.515 85.037C311.242 83.9017 309.648 83.2805 308.003 83.2785V80.0481C310.333 80.0484 312.591 80.9263 314.395 82.5331C316.198 84.1399 317.436 86.3767 317.899 88.8643C318.361 91.3519 318.02 93.9371 316.932 96.1819C315.845 98.4266 314.079 100.193 311.932 101.181Z" fill="#8BBFF7" stroke="#263238" stroke-width="1.06068" stroke-miterlimit="10"/>
</svg>
