<svg width="213" height="25" viewBox="0 0 213 25" fill="none" xmlns="http://www.w3.org/2000/svg">
<g clip-path="url(#clip0_107_2)">
<path d="M37.4438 18V8.54545H41.1739C41.891 8.54545 42.5019 8.68241 43.0067 8.95632C43.5114 9.22715 43.8961 9.60417 44.1608 10.0874C44.4285 10.5675 44.5624 11.1214 44.5624 11.7493C44.5624 12.3771 44.427 12.9311 44.1562 13.4112C43.8853 13.8913 43.4929 14.2653 42.979 14.533C42.4681 14.8008 41.8495 14.9347 41.1231 14.9347H38.7456V13.3327H40.8C41.1847 13.3327 41.5017 13.2666 41.751 13.1342C42.0033 12.9988 42.1911 12.8126 42.3142 12.5756C42.4404 12.3356 42.5035 12.0601 42.5035 11.7493C42.5035 11.4354 42.4404 11.1615 42.3142 10.9276C42.1911 10.6906 42.0033 10.5075 41.751 10.3782C41.4986 10.2459 41.1785 10.1797 40.7907 10.1797H39.4427V18H37.4438ZM48.9134 18.1385C48.1963 18.1385 47.5762 17.9862 47.053 17.6815C46.5329 17.3737 46.1312 16.9459 45.8481 16.3981C45.565 15.8472 45.4234 15.2086 45.4234 14.4822C45.4234 13.7498 45.565 13.1096 45.8481 12.5618C46.1312 12.0109 46.5329 11.5831 47.053 11.2784C47.5762 10.9706 48.1963 10.8168 48.9134 10.8168C49.6305 10.8168 50.2491 10.9706 50.7693 11.2784C51.2925 11.5831 51.6956 12.0109 51.9788 12.5618C52.2619 13.1096 52.4035 13.7498 52.4035 14.4822C52.4035 15.2086 52.2619 15.8472 51.9788 16.3981C51.6956 16.9459 51.2925 17.3737 50.7693 17.6815C50.2491 17.9862 49.6305 18.1385 48.9134 18.1385ZM48.9227 16.6151C49.2489 16.6151 49.5213 16.5227 49.7398 16.3381C49.9583 16.1503 50.123 15.8949 50.2338 15.5717C50.3476 15.2486 50.4046 14.8808 50.4046 14.4684C50.4046 14.056 50.3476 13.6882 50.2338 13.3651C50.123 13.0419 49.9583 12.7865 49.7398 12.5987C49.5213 12.411 49.2489 12.3171 48.9227 12.3171C48.5934 12.3171 48.3164 12.411 48.0917 12.5987C47.8701 12.7865 47.7024 13.0419 47.5885 13.3651C47.4777 13.6882 47.4223 14.056 47.4223 14.4684C47.4223 14.8808 47.4777 15.2486 47.5885 15.5717C47.7024 15.8949 47.8701 16.1503 48.0917 16.3381C48.3164 16.5227 48.5934 16.6151 48.9227 16.6151ZM53.6823 18V10.9091H55.5889V12.1463H55.6627C55.792 11.7062 56.009 11.3738 56.3137 11.1491C56.6183 10.9214 56.9692 10.8075 57.3662 10.8075C57.4647 10.8075 57.5709 10.8137 57.6847 10.826C57.7986 10.8383 57.8986 10.8552 57.9848 10.8768V12.6218C57.8925 12.5941 57.7648 12.5695 57.6017 12.5479C57.4385 12.5264 57.2893 12.5156 57.1539 12.5156C56.8646 12.5156 56.606 12.5787 56.3783 12.7049C56.1536 12.828 55.9751 13.0004 55.8428 13.2219C55.7135 13.4435 55.6489 13.699 55.6489 13.9883V18H53.6823ZM63.1287 10.9091V12.3864H58.8585V10.9091H63.1287ZM59.8279 9.21023H61.7946V15.821C61.7946 16.0026 61.8223 16.1442 61.8777 16.2457C61.9331 16.3442 62.01 16.4135 62.1085 16.4535C62.21 16.4935 62.327 16.5135 62.4593 16.5135C62.5517 16.5135 62.644 16.5058 62.7363 16.4904C62.8287 16.4719 62.8994 16.4581 62.9487 16.4489L63.258 17.9123C63.1595 17.9431 63.021 17.9785 62.8425 18.0185C62.664 18.0616 62.447 18.0877 62.1916 18.0969C61.7176 18.1154 61.3021 18.0523 60.9451 17.9077C60.5912 17.763 60.3158 17.5384 60.1188 17.2337C59.9218 16.929 59.8249 16.5443 59.8279 16.0795V9.21023ZM66.4318 18.1339C65.9794 18.1339 65.5762 18.0554 65.2223 17.8984C64.8684 17.7384 64.5883 17.503 64.3821 17.1921C64.179 16.8782 64.0774 16.4873 64.0774 16.0195C64.0774 15.6256 64.1497 15.2947 64.2944 15.027C64.439 14.7592 64.636 14.5438 64.8853 14.3807C65.1346 14.2176 65.4177 14.0945 65.7347 14.0114C66.0548 13.9283 66.3903 13.8698 66.7411 13.8359C67.1535 13.7929 67.4859 13.7528 67.7383 13.7159C67.9906 13.6759 68.1738 13.6174 68.2876 13.5405C68.4015 13.4635 68.4585 13.3497 68.4585 13.1989V13.1712C68.4585 12.8788 68.3661 12.6526 68.1815 12.4925C67.9999 12.3325 67.7414 12.2525 67.4059 12.2525C67.052 12.2525 66.7704 12.331 66.5611 12.4879C66.3518 12.6418 66.2133 12.8357 66.1456 13.0696L64.3267 12.9219C64.419 12.491 64.6006 12.1186 64.8714 11.8047C65.1423 11.4877 65.4916 11.2446 65.9194 11.0753C66.3503 10.9029 66.8488 10.8168 67.4151 10.8168C67.8091 10.8168 68.1861 10.8629 68.5462 10.9553C68.9093 11.0476 69.2309 11.1907 69.511 11.3846C69.7942 11.5785 70.0173 11.8278 70.1804 12.1325C70.3435 12.4341 70.4251 12.7957 70.4251 13.2173V18H68.56V17.0167H68.5046C68.3907 17.2383 68.2384 17.4337 68.0476 17.603C67.8568 17.7692 67.6275 17.9 67.3597 17.9954C67.092 18.0877 66.7827 18.1339 66.4318 18.1339ZM66.995 16.7766C67.2843 16.7766 67.5398 16.7197 67.7614 16.6058C67.983 16.4889 68.1568 16.3319 68.283 16.1349C68.4092 15.938 68.4723 15.7148 68.4723 15.4656V14.7131C68.4107 14.7531 68.3261 14.79 68.2184 14.8239C68.1138 14.8546 67.9953 14.8839 67.8629 14.9116C67.7306 14.9362 67.5982 14.9593 67.4659 14.9808C67.3336 14.9993 67.2135 15.0162 67.1058 15.0316C66.875 15.0655 66.6734 15.1193 66.5011 15.1932C66.3287 15.267 66.1948 15.3671 66.0994 15.4933C66.004 15.6164 65.9563 15.7702 65.9563 15.9549C65.9563 16.2227 66.0533 16.4273 66.2472 16.5689C66.4441 16.7074 66.6934 16.7766 66.995 16.7766ZM75.764 10.9091V12.3864H71.3876V10.9091H75.764ZM72.3894 18V10.3967C72.3894 9.88269 72.4894 9.45644 72.6895 9.1179C72.8926 8.77936 73.1696 8.52545 73.5204 8.35618C73.8713 8.18691 74.2698 8.10227 74.7161 8.10227C75.0177 8.10227 75.2931 8.12535 75.5424 8.17152C75.7948 8.21768 75.9825 8.25923 76.1056 8.29616L75.7548 9.77344C75.6779 9.74882 75.5824 9.72573 75.4686 9.70419C75.3578 9.68265 75.2439 9.67188 75.127 9.67188C74.8377 9.67188 74.6361 9.73958 74.5222 9.875C74.4083 10.0073 74.3514 10.1935 74.3514 10.4336V18H72.3894ZM79.9154 18.1385C79.1983 18.1385 78.5782 17.9862 78.055 17.6815C77.5348 17.3737 77.1332 16.9459 76.8501 16.3981C76.5669 15.8472 76.4253 15.2086 76.4253 14.4822C76.4253 13.7498 76.5669 13.1096 76.8501 12.5618C77.1332 12.0109 77.5348 11.5831 78.055 11.2784C78.5782 10.9706 79.1983 10.8168 79.9154 10.8168C80.6325 10.8168 81.2511 10.9706 81.7712 11.2784C82.2944 11.5831 82.6976 12.0109 82.9807 12.5618C83.2639 13.1096 83.4055 13.7498 83.4055 14.4822C83.4055 15.2086 83.2639 15.8472 82.9807 16.3981C82.6976 16.9459 82.2944 17.3737 81.7712 17.6815C81.2511 17.9862 80.6325 18.1385 79.9154 18.1385ZM79.9246 16.6151C80.2509 16.6151 80.5232 16.5227 80.7417 16.3381C80.9603 16.1503 81.1249 15.8949 81.2357 15.5717C81.3496 15.2486 81.4065 14.8808 81.4065 14.4684C81.4065 14.056 81.3496 13.6882 81.2357 13.3651C81.1249 13.0419 80.9603 12.7865 80.7417 12.5987C80.5232 12.411 80.2509 12.3171 79.9246 12.3171C79.5953 12.3171 79.3183 12.411 79.0937 12.5987C78.8721 12.7865 78.7043 13.0419 78.5905 13.3651C78.4797 13.6882 78.4243 14.056 78.4243 14.4684C78.4243 14.8808 78.4797 15.2486 78.5905 15.5717C78.7043 15.8949 78.8721 16.1503 79.0937 16.3381C79.3183 16.5227 79.5953 16.6151 79.9246 16.6151ZM86.6508 8.54545V18H84.6842V8.54545H86.6508ZM88.2262 18V10.9091H90.1928V18H88.2262ZM89.2141 9.99503C88.9218 9.99503 88.6709 9.89808 88.4616 9.70419C88.2554 9.50722 88.1523 9.27178 88.1523 8.99787C88.1523 8.72704 88.2554 8.49467 88.4616 8.30078C88.6709 8.10381 88.9218 8.00533 89.2141 8.00533C89.5065 8.00533 89.7558 8.10381 89.962 8.30078C90.1713 8.49467 90.2759 8.72704 90.2759 8.99787C90.2759 9.27178 90.1713 9.50722 89.962 9.70419C89.7558 9.89808 89.5065 9.99503 89.2141 9.99503ZM94.972 18.1385C94.2549 18.1385 93.6348 17.9862 93.1116 17.6815C92.5915 17.3737 92.1898 16.9459 91.9067 16.3981C91.6235 15.8472 91.482 15.2086 91.482 14.4822C91.482 13.7498 91.6235 13.1096 91.9067 12.5618C92.1898 12.0109 92.5915 11.5831 93.1116 11.2784C93.6348 10.9706 94.2549 10.8168 94.972 10.8168C95.6891 10.8168 96.3077 10.9706 96.8279 11.2784C97.3511 11.5831 97.7542 12.0109 98.0374 12.5618C98.3205 13.1096 98.4621 13.7498 98.4621 14.4822C98.4621 15.2086 98.3205 15.8472 98.0374 16.3981C97.7542 16.9459 97.3511 17.3737 96.8279 17.6815C96.3077 17.9862 95.6891 18.1385 94.972 18.1385ZM94.9813 16.6151C95.3075 16.6151 95.5799 16.5227 95.7984 16.3381C96.0169 16.1503 96.1816 15.8949 96.2923 15.5717C96.4062 15.2486 96.4632 14.8808 96.4632 14.4684C96.4632 14.056 96.4062 13.6882 96.2923 13.3651C96.1816 13.0419 96.0169 12.7865 95.7984 12.5987C95.5799 12.411 95.3075 12.3171 94.9813 12.3171C94.652 12.3171 94.375 12.411 94.1503 12.5987C93.9287 12.7865 93.761 13.0419 93.6471 13.3651C93.5363 13.6882 93.4809 14.056 93.4809 14.4684C93.4809 14.8808 93.5363 15.2486 93.6471 15.5717C93.761 15.8949 93.9287 16.1503 94.1503 16.3381C94.375 16.5227 94.652 16.6151 94.9813 16.6151ZM104.717 6.46023V20.8125H103.865V6.46023H104.717ZM114.064 18V9.27273H115.12V17.0625H119.177V18H114.064ZM123.336 18.1364C122.745 18.1364 122.227 17.9957 121.781 17.7145C121.338 17.4332 120.991 17.0398 120.741 16.5341C120.494 16.0284 120.37 15.4375 120.37 14.7614C120.37 14.0795 120.494 13.4844 120.741 12.9759C120.991 12.4673 121.338 12.0724 121.781 11.7912C122.227 11.5099 122.745 11.3693 123.336 11.3693C123.927 11.3693 124.444 11.5099 124.888 11.7912C125.334 12.0724 125.68 12.4673 125.927 12.9759C126.177 13.4844 126.302 14.0795 126.302 14.7614C126.302 15.4375 126.177 16.0284 125.927 16.5341C125.68 17.0398 125.334 17.4332 124.888 17.7145C124.444 17.9957 123.927 18.1364 123.336 18.1364ZM123.336 17.233C123.785 17.233 124.155 17.1179 124.444 16.8878C124.734 16.6577 124.949 16.3551 125.088 15.9801C125.227 15.6051 125.297 15.1989 125.297 14.7614C125.297 14.3239 125.227 13.9162 125.088 13.5384C124.949 13.1605 124.734 12.8551 124.444 12.6222C124.155 12.3892 123.785 12.2727 123.336 12.2727C122.888 12.2727 122.518 12.3892 122.228 12.6222C121.939 12.8551 121.724 13.1605 121.585 13.5384C121.446 13.9162 121.376 14.3239 121.376 14.7614C121.376 15.1989 121.446 15.6051 121.585 15.9801C121.724 16.3551 121.939 16.6577 122.228 16.8878C122.518 17.1179 122.888 17.233 123.336 17.233ZM127.837 18V11.4545H128.809V12.4432H128.877C128.997 12.1193 129.212 11.8565 129.525 11.6548C129.837 11.4531 130.19 11.3523 130.582 11.3523C130.656 11.3523 130.748 11.3537 130.859 11.3565C130.97 11.3594 131.053 11.3636 131.11 11.3693V12.392C131.076 12.3835 130.998 12.3707 130.876 12.3537C130.756 12.3338 130.63 12.3239 130.497 12.3239C130.178 12.3239 129.894 12.3906 129.644 12.5241C129.397 12.6548 129.201 12.8366 129.056 13.0696C128.914 13.2997 128.843 13.5625 128.843 13.858V18H127.837ZM134.847 18.1364C134.217 18.1364 133.673 17.9972 133.215 17.7188C132.761 17.4375 132.41 17.0455 132.163 16.5426C131.918 16.0369 131.796 15.4489 131.796 14.7784C131.796 14.108 131.918 13.517 132.163 13.0057C132.41 12.4915 132.754 12.0909 133.194 11.804C133.637 11.5142 134.154 11.3693 134.745 11.3693C135.086 11.3693 135.423 11.4261 135.755 11.5398C136.087 11.6534 136.39 11.8381 136.663 12.0938C136.935 12.3466 137.153 12.6818 137.315 13.0994C137.477 13.517 137.558 14.0312 137.558 14.642V15.0682H132.512V14.1989H136.535C136.535 13.8295 136.461 13.5 136.313 13.2102C136.168 12.9205 135.961 12.6918 135.691 12.5241C135.424 12.3565 135.109 12.2727 134.745 12.2727C134.345 12.2727 133.998 12.3722 133.705 12.571C133.416 12.767 133.193 13.0227 133.036 13.3381C132.88 13.6534 132.802 13.9915 132.802 14.3523V14.9318C132.802 15.4261 132.887 15.8452 133.058 16.1889C133.231 16.5298 133.471 16.7898 133.778 16.9688C134.085 17.1449 134.441 17.233 134.847 17.233C135.112 17.233 135.35 17.196 135.563 17.1222C135.779 17.0455 135.965 16.9318 136.122 16.7812C136.278 16.6278 136.399 16.4375 136.484 16.2102L137.455 16.483C137.353 16.8125 137.181 17.1023 136.94 17.3523C136.698 17.5994 136.4 17.7926 136.045 17.9318C135.69 18.0682 135.291 18.1364 134.847 18.1364ZM140.093 14.0625V18H139.087V11.4545H140.059V12.4773H140.144C140.298 12.1449 140.531 11.8778 140.843 11.6761C141.156 11.4716 141.559 11.3693 142.053 11.3693C142.497 11.3693 142.884 11.4602 143.217 11.642C143.549 11.821 143.808 12.0938 143.992 12.4602C144.177 12.8239 144.269 13.2841 144.269 13.8409V18H143.264V13.9091C143.264 13.3949 143.13 12.9943 142.863 12.7074C142.596 12.4176 142.229 12.2727 141.764 12.2727C141.443 12.2727 141.156 12.3423 140.903 12.4815C140.653 12.6207 140.455 12.8239 140.31 13.0909C140.166 13.358 140.093 13.6818 140.093 14.0625ZM148.033 18.1534C147.618 18.1534 147.242 18.0753 146.904 17.919C146.566 17.7599 146.297 17.5312 146.098 17.233C145.9 16.9318 145.8 16.5682 145.8 16.142C145.8 15.767 145.874 15.4631 146.022 15.2301C146.169 14.9943 146.367 14.8097 146.614 14.6761C146.861 14.5426 147.134 14.4432 147.432 14.3778C147.733 14.3097 148.036 14.2557 148.34 14.2159C148.738 14.1648 149.06 14.1264 149.307 14.1009C149.557 14.0724 149.739 14.0256 149.853 13.9602C149.969 13.8949 150.027 13.7812 150.027 13.6193V13.5852C150.027 13.1648 149.912 12.8381 149.682 12.6051C149.455 12.3722 149.11 12.2557 148.647 12.2557C148.167 12.2557 147.79 12.3608 147.517 12.571C147.245 12.7812 147.053 13.0057 146.942 13.2443L145.988 12.9034C146.158 12.5057 146.385 12.196 146.669 11.9744C146.956 11.75 147.269 11.5937 147.607 11.5057C147.948 11.4148 148.283 11.3693 148.613 11.3693C148.823 11.3693 149.064 11.3949 149.337 11.446C149.613 11.4943 149.878 11.5952 150.134 11.7486C150.392 11.902 150.607 12.1335 150.777 12.4432C150.948 12.7528 151.033 13.1676 151.033 13.6875V18H150.027V17.1136H149.976C149.908 17.2557 149.794 17.4077 149.635 17.5696C149.476 17.7315 149.265 17.8693 149 17.983C148.736 18.0966 148.414 18.1534 148.033 18.1534ZM148.187 17.25C148.584 17.25 148.919 17.1719 149.192 17.0156C149.468 16.8594 149.675 16.6577 149.814 16.4105C149.956 16.1634 150.027 15.9034 150.027 15.6307V14.7102C149.985 14.7614 149.891 14.8082 149.746 14.8509C149.604 14.8906 149.439 14.9261 149.252 14.9574C149.067 14.9858 148.887 15.0114 148.711 15.0341C148.537 15.054 148.397 15.071 148.289 15.0852C148.027 15.1193 147.783 15.1747 147.556 15.2514C147.331 15.3253 147.15 15.4375 147.01 15.5881C146.874 15.7358 146.806 15.9375 146.806 16.1932C146.806 16.5426 146.935 16.8068 147.194 16.9858C147.455 17.1619 147.786 17.25 148.187 17.25ZM163.403 12H162.346C162.283 11.696 162.174 11.429 162.018 11.1989C161.864 10.9688 161.677 10.7756 161.455 10.6193C161.237 10.4602 160.994 10.3409 160.727 10.2614C160.46 10.1818 160.181 10.142 159.891 10.142C159.363 10.142 158.884 10.2756 158.455 10.5426C158.029 10.8097 157.69 11.2031 157.437 11.723C157.187 12.2429 157.062 12.8807 157.062 13.6364C157.062 14.392 157.187 15.0298 157.437 15.5497C157.69 16.0696 158.029 16.4631 158.455 16.7301C158.884 16.9972 159.363 17.1307 159.891 17.1307C160.181 17.1307 160.46 17.0909 160.727 17.0114C160.994 16.9318 161.237 16.8139 161.455 16.6577C161.677 16.4986 161.864 16.304 162.018 16.0739C162.174 15.8409 162.283 15.5739 162.346 15.2727H163.403C163.323 15.7187 163.178 16.1179 162.968 16.4702C162.758 16.8224 162.497 17.1222 162.184 17.3693C161.872 17.6136 161.521 17.7997 161.131 17.9276C160.745 18.0554 160.332 18.1193 159.891 18.1193C159.147 18.1193 158.485 17.9375 157.906 17.5739C157.326 17.2102 156.87 16.6932 156.538 16.0227C156.205 15.3523 156.039 14.5568 156.039 13.6364C156.039 12.7159 156.205 11.9205 156.538 11.25C156.87 10.5795 157.326 10.0625 157.906 9.69886C158.485 9.33523 159.147 9.15341 159.891 9.15341C160.332 9.15341 160.745 9.21733 161.131 9.34517C161.521 9.47301 161.872 9.66051 162.184 9.90767C162.497 10.152 162.758 10.4503 162.968 10.8026C163.178 11.152 163.323 11.5511 163.403 12ZM167.718 18.1364C167.088 18.1364 166.544 17.9972 166.086 17.7188C165.632 17.4375 165.281 17.0455 165.034 16.5426C164.79 16.0369 164.667 15.4489 164.667 14.7784C164.667 14.108 164.79 13.517 165.034 13.0057C165.281 12.4915 165.625 12.0909 166.065 11.804C166.508 11.5142 167.025 11.3693 167.616 11.3693C167.957 11.3693 168.294 11.4261 168.626 11.5398C168.959 11.6534 169.261 11.8381 169.534 12.0938C169.807 12.3466 170.024 12.6818 170.186 13.0994C170.348 13.517 170.429 14.0312 170.429 14.642V15.0682H165.383V14.1989H169.406C169.406 13.8295 169.332 13.5 169.184 13.2102C169.04 12.9205 168.832 12.6918 168.562 12.5241C168.295 12.3565 167.98 12.2727 167.616 12.2727C167.216 12.2727 166.869 12.3722 166.576 12.571C166.287 12.767 166.064 13.0227 165.907 13.3381C165.751 13.6534 165.673 13.9915 165.673 14.3523V14.9318C165.673 15.4261 165.758 15.8452 165.929 16.1889C166.102 16.5298 166.342 16.7898 166.649 16.9688C166.956 17.1449 167.312 17.233 167.718 17.233C167.983 17.233 168.221 17.196 168.434 17.1222C168.65 17.0455 168.836 16.9318 168.993 16.7812C169.149 16.6278 169.27 16.4375 169.355 16.2102L170.326 16.483C170.224 16.8125 170.052 17.1023 169.811 17.3523C169.569 17.5994 169.271 17.7926 168.916 17.9318C168.561 18.0682 168.162 18.1364 167.718 18.1364ZM172.095 18V9.27273H173.101V12.4943H173.186C173.26 12.3807 173.362 12.2358 173.493 12.0597C173.626 11.8807 173.816 11.7216 174.064 11.5824C174.314 11.4403 174.652 11.3693 175.078 11.3693C175.629 11.3693 176.115 11.5071 176.535 11.7827C176.956 12.0582 177.284 12.4489 177.52 12.9545C177.755 13.4602 177.873 14.0568 177.873 14.7443C177.873 15.4375 177.755 16.0384 177.52 16.5469C177.284 17.0526 176.957 17.4446 176.54 17.723C176.122 17.9986 175.64 18.1364 175.095 18.1364C174.674 18.1364 174.338 18.0668 174.085 17.9276C173.832 17.7855 173.638 17.625 173.501 17.446C173.365 17.2642 173.26 17.1136 173.186 16.9943H173.066V18H172.095ZM173.084 14.7273C173.084 15.2216 173.156 15.6577 173.301 16.0355C173.446 16.4105 173.657 16.7045 173.936 16.9176C174.214 17.1278 174.555 17.233 174.959 17.233C175.379 17.233 175.73 17.1222 176.011 16.9006C176.295 16.6761 176.508 16.375 176.65 15.9972C176.795 15.6165 176.868 15.1932 176.868 14.7273C176.868 14.267 176.797 13.8523 176.655 13.483C176.515 13.1108 176.304 12.8168 176.02 12.6009C175.738 12.3821 175.385 12.2727 174.959 12.2727C174.549 12.2727 174.206 12.3764 173.927 12.5838C173.649 12.7884 173.439 13.0753 173.297 13.4446C173.155 13.8111 173.084 14.2386 173.084 14.7273ZM181.338 18.1534C180.923 18.1534 180.547 18.0753 180.209 17.919C179.87 17.7599 179.602 17.5312 179.403 17.233C179.204 16.9318 179.105 16.5682 179.105 16.142C179.105 15.767 179.179 15.4631 179.326 15.2301C179.474 14.9943 179.672 14.8097 179.919 14.6761C180.166 14.5426 180.439 14.4432 180.737 14.3778C181.038 14.3097 181.341 14.2557 181.645 14.2159C182.042 14.1648 182.365 14.1264 182.612 14.1009C182.862 14.0724 183.044 14.0256 183.157 13.9602C183.274 13.8949 183.332 13.7812 183.332 13.6193V13.5852C183.332 13.1648 183.217 12.8381 182.987 12.6051C182.76 12.3722 182.415 12.2557 181.951 12.2557C181.471 12.2557 181.095 12.3608 180.822 12.571C180.549 12.7812 180.358 13.0057 180.247 13.2443L179.292 12.9034C179.463 12.5057 179.69 12.196 179.974 11.9744C180.261 11.75 180.574 11.5937 180.912 11.5057C181.253 11.4148 181.588 11.3693 181.917 11.3693C182.128 11.3693 182.369 11.3949 182.642 11.446C182.917 11.4943 183.183 11.5952 183.439 11.7486C183.697 11.902 183.912 12.1335 184.082 12.4432C184.253 12.7528 184.338 13.1676 184.338 13.6875V18H183.332V17.1136H183.281C183.213 17.2557 183.099 17.4077 182.94 17.5696C182.781 17.7315 182.569 17.8693 182.305 17.983C182.041 18.0966 181.718 18.1534 181.338 18.1534ZM181.491 17.25C181.889 17.25 182.224 17.1719 182.497 17.0156C182.772 16.8594 182.98 16.6577 183.119 16.4105C183.261 16.1634 183.332 15.9034 183.332 15.6307V14.7102C183.29 14.7614 183.196 14.8082 183.051 14.8509C182.909 14.8906 182.744 14.9261 182.557 14.9574C182.372 14.9858 182.191 15.0114 182.015 15.0341C181.842 15.054 181.701 15.071 181.593 15.0852C181.332 15.1193 181.088 15.1747 180.861 15.2514C180.636 15.3253 180.454 15.4375 180.315 15.5881C180.179 15.7358 180.111 15.9375 180.111 16.1932C180.111 16.5426 180.24 16.8068 180.498 16.9858C180.76 17.1619 181.091 17.25 181.491 17.25ZM187.179 9.27273V18H186.173V9.27273H187.179ZM190.027 9.27273V18H189.021V9.27273H190.027ZM194.528 18.1364C193.937 18.1364 193.418 17.9957 192.972 17.7145C192.529 17.4332 192.183 17.0398 191.933 16.5341C191.685 16.0284 191.562 15.4375 191.562 14.7614C191.562 14.0795 191.685 13.4844 191.933 12.9759C192.183 12.4673 192.529 12.0724 192.972 11.7912C193.418 11.5099 193.937 11.3693 194.528 11.3693C195.119 11.3693 195.636 11.5099 196.079 11.7912C196.525 12.0724 196.872 12.4673 197.119 12.9759C197.369 13.4844 197.494 14.0795 197.494 14.7614C197.494 15.4375 197.369 16.0284 197.119 16.5341C196.872 17.0398 196.525 17.4332 196.079 17.7145C195.636 17.9957 195.119 18.1364 194.528 18.1364ZM194.528 17.233C194.977 17.233 195.346 17.1179 195.636 16.8878C195.926 16.6577 196.14 16.3551 196.279 15.9801C196.418 15.6051 196.488 15.1989 196.488 14.7614C196.488 14.3239 196.418 13.9162 196.279 13.5384C196.14 13.1605 195.926 12.8551 195.636 12.6222C195.346 12.3892 194.977 12.2727 194.528 12.2727C194.079 12.2727 193.71 12.3892 193.42 12.6222C193.13 12.8551 192.916 13.1605 192.776 13.5384C192.637 13.9162 192.568 14.3239 192.568 14.7614C192.568 15.1989 192.637 15.6051 192.776 15.9801C192.916 16.3551 193.13 16.6577 193.42 16.8878C193.71 17.1179 194.079 17.233 194.528 17.233ZM203.665 12.9205L202.762 13.1761C202.705 13.0256 202.621 12.8793 202.51 12.7372C202.402 12.5923 202.255 12.473 202.067 12.3793C201.88 12.2855 201.64 12.2386 201.347 12.2386C200.946 12.2386 200.613 12.331 200.346 12.5156C200.081 12.6974 199.949 12.929 199.949 13.2102C199.949 13.4602 200.04 13.6577 200.222 13.8026C200.404 13.9474 200.688 14.0682 201.074 14.1648L202.046 14.4034C202.631 14.5455 203.067 14.7628 203.354 15.0554C203.641 15.3452 203.785 15.7187 203.785 16.1761C203.785 16.5511 203.677 16.8864 203.461 17.1818C203.248 17.4773 202.949 17.7102 202.566 17.8807C202.182 18.0511 201.736 18.1364 201.228 18.1364C200.56 18.1364 200.008 17.9915 199.57 17.7017C199.133 17.4119 198.856 16.9886 198.739 16.4318L199.694 16.1932C199.785 16.5455 199.956 16.8097 200.209 16.9858C200.465 17.1619 200.799 17.25 201.211 17.25C201.679 17.25 202.052 17.1506 202.327 16.9517C202.606 16.75 202.745 16.5085 202.745 16.2273C202.745 16 202.665 15.8097 202.506 15.6562C202.347 15.5 202.103 15.3835 201.773 15.3068L200.682 15.0511C200.083 14.9091 199.642 14.6889 199.361 14.3906C199.083 14.0895 198.944 13.7131 198.944 13.2614C198.944 12.892 199.047 12.5653 199.255 12.2812C199.465 11.9972 199.75 11.7741 200.111 11.6122C200.475 11.4503 200.887 11.3693 201.347 11.3693C201.995 11.3693 202.503 11.5114 202.873 11.7955C203.245 12.0795 203.509 12.4545 203.665 12.9205Z" fill="white"/>
<path d="M14 25C21.732 25 28 19.4036 28 12.5C28 5.59644 21.732 0 14 0C6.26801 0 0 5.59644 0 12.5C0 19.4036 6.26801 25 14 25Z" fill="#5267DF"/>
<path fill-rule="evenodd" clip-rule="evenodd" d="M10.0801 9V19L14.0449 15.56L18.0074 19V9C18.0074 8.46957 17.7714 7.96086 17.3514 7.58579C16.9313 7.21071 16.3615 7 15.7674 7H12.3201C11.726 7 11.1562 7.21071 10.7362 7.58579C10.3161 7.96086 10.0801 8.46957 10.0801 9Z" fill="white"/>
</g>
<defs>
<clipPath id="clip0_107_2">
<rect width="213" height="25" fill="white"/>
</clipPath>
</defs>
</svg>
