<svg width="293" height="34" viewBox="0 0 293 34" fill="none" xmlns="http://www.w3.org/2000/svg">
<g clip-path="url(#clip0_105_75)">
<path d="M54.05 26V11.4545H59.7886C60.8919 11.4545 61.8317 11.6652 62.6082 12.0866C63.3848 12.5033 63.9766 13.0833 64.3838 13.8267C64.7957 14.5653 65.0017 15.4176 65.0017 16.3835C65.0017 17.3494 64.7934 18.2017 64.3767 18.9403C63.96 19.679 63.3563 20.2543 62.5656 20.6662C61.7796 21.0781 60.8279 21.2841 59.7105 21.2841H56.0528V18.8196H59.2134C59.8052 18.8196 60.2929 18.7178 60.6764 18.5142C61.0647 18.3059 61.3535 18.0194 61.5429 17.6548C61.737 17.2855 61.8341 16.8617 61.8341 16.3835C61.8341 15.9006 61.737 15.4792 61.5429 15.1193C61.3535 14.7547 61.0647 14.473 60.6764 14.2741C60.2882 14.0705 59.7957 13.9688 59.1991 13.9688H57.1253V26H54.05ZM71.6956 26.2131C70.5924 26.2131 69.6383 25.9787 68.8334 25.5099C68.0332 25.0365 67.4153 24.3783 66.9797 23.5355C66.5441 22.688 66.3263 21.7055 66.3263 20.5881C66.3263 19.4612 66.5441 18.4763 66.9797 17.6335C67.4153 16.786 68.0332 16.1278 68.8334 15.6591C69.6383 15.1856 70.5924 14.9489 71.6956 14.9489C72.7988 14.9489 73.7505 15.1856 74.5507 15.6591C75.3556 16.1278 75.9759 16.786 76.4115 17.6335C76.8471 18.4763 77.0649 19.4612 77.0649 20.5881C77.0649 21.7055 76.8471 22.688 76.4115 23.5355C75.9759 24.3783 75.3556 25.0365 74.5507 25.5099C73.7505 25.9787 72.7988 26.2131 71.6956 26.2131ZM71.7098 23.8693C72.2117 23.8693 72.6307 23.7273 72.9669 23.4432C73.3031 23.1544 73.5564 22.7614 73.7268 22.2642C73.902 21.767 73.9896 21.2012 73.9896 20.5668C73.9896 19.9323 73.902 19.3665 73.7268 18.8693C73.5564 18.3722 73.3031 17.9792 72.9669 17.6903C72.6307 17.4015 72.2117 17.2571 71.7098 17.2571C71.2032 17.2571 70.777 17.4015 70.4314 17.6903C70.0905 17.9792 69.8324 18.3722 69.6572 18.8693C69.4868 19.3665 69.4016 19.9323 69.4016 20.5668C69.4016 21.2012 69.4868 21.767 69.6572 22.2642C69.8324 22.7614 70.0905 23.1544 70.4314 23.4432C70.777 23.7273 71.2032 23.8693 71.7098 23.8693ZM79.0322 26V15.0909H81.9655V16.9943H82.0791C82.278 16.3172 82.6118 15.8059 83.0805 15.4602C83.5493 15.1098 84.0891 14.9347 84.6999 14.9347C84.8514 14.9347 85.0147 14.9441 85.1899 14.9631C85.3651 14.982 85.519 15.008 85.6516 15.0412V17.7259C85.5095 17.6832 85.313 17.6454 85.0621 17.6122C84.8111 17.5791 84.5815 17.5625 84.3732 17.5625C83.9281 17.5625 83.5304 17.6596 83.18 17.8537C82.8343 18.0431 82.5597 18.3082 82.3561 18.6491C82.1572 18.9901 82.0578 19.383 82.0578 19.8281V26H79.0322ZM93.5653 15.0909V17.3636H86.9957V15.0909H93.5653ZM88.4871 12.4773H91.5127V22.6477C91.5127 22.9271 91.5553 23.1449 91.6406 23.3011C91.7258 23.4527 91.8442 23.5592 91.9957 23.6207C92.1519 23.6823 92.3318 23.7131 92.5354 23.7131C92.6775 23.7131 92.8195 23.7012 92.9616 23.6776C93.1036 23.6491 93.2125 23.6278 93.2883 23.6136L93.7641 25.8651C93.6126 25.9124 93.3996 25.9669 93.1249 26.0284C92.8503 26.0947 92.5165 26.1349 92.1235 26.1491C91.3943 26.1776 90.7551 26.0805 90.2059 25.858C89.6614 25.6354 89.2376 25.2898 88.9346 24.821C88.6316 24.3523 88.4824 23.7604 88.4871 23.0455V12.4773ZM98.6469 26.206C97.9509 26.206 97.3307 26.0852 96.7862 25.8438C96.2416 25.5975 95.8108 25.2353 95.4935 24.7571C95.181 24.2741 95.0248 23.6728 95.0248 22.9531C95.0248 22.3471 95.1361 21.8381 95.3586 21.4261C95.5811 21.0142 95.8842 20.6828 96.2677 20.4318C96.6512 20.1809 97.0868 19.9915 97.5745 19.8636C98.0669 19.7358 98.583 19.6458 99.1228 19.5938C99.7573 19.5275 100.269 19.4659 100.657 19.4091C101.045 19.3475 101.327 19.2576 101.502 19.1392C101.677 19.0208 101.765 18.8456 101.765 18.6136V18.571C101.765 18.1212 101.623 17.7732 101.339 17.527C101.059 17.2808 100.662 17.1577 100.146 17.1577C99.601 17.1577 99.1678 17.2784 98.8458 17.5199C98.5238 17.7566 98.3108 18.0549 98.2066 18.4148L95.4083 18.1875C95.5504 17.5246 95.8297 16.9517 96.2464 16.4688C96.663 15.9811 97.2005 15.607 97.8586 15.3466C98.5215 15.0814 99.2885 14.9489 100.16 14.9489C100.766 14.9489 101.346 15.0199 101.9 15.1619C102.459 15.304 102.953 15.5241 103.384 15.8224C103.82 16.1207 104.163 16.5043 104.414 16.973C104.665 17.437 104.79 17.9934 104.79 18.642V26H101.921V24.4872H101.836C101.661 24.8281 101.426 25.1288 101.133 25.3892C100.839 25.6449 100.486 25.8461 100.075 25.9929C99.6626 26.1349 99.1867 26.206 98.6469 26.206ZM99.5134 24.1179C99.9585 24.1179 100.351 24.0303 100.692 23.8551C101.033 23.6752 101.301 23.4337 101.495 23.1307C101.689 22.8277 101.786 22.4844 101.786 22.1009V20.9432C101.691 21.0047 101.561 21.0616 101.396 21.1136C101.235 21.161 101.052 21.206 100.849 21.2486C100.645 21.2865 100.441 21.322 100.238 21.3551C100.034 21.3835 99.8496 21.4096 99.6839 21.4332C99.3288 21.4853 99.0186 21.5682 98.7535 21.6818C98.4883 21.7955 98.2824 21.9493 98.1356 22.1435C97.9888 22.3329 97.9154 22.5696 97.9154 22.8537C97.9154 23.2656 98.0646 23.5805 98.3629 23.7983C98.6659 24.0114 99.0494 24.1179 99.5134 24.1179ZM113.004 15.0909V17.3636H106.271V15.0909H113.004ZM107.812 26V14.3026C107.812 13.5118 107.966 12.8561 108.274 12.3352C108.587 11.8144 109.013 11.4238 109.552 11.1634C110.092 10.9029 110.705 10.7727 111.392 10.7727C111.856 10.7727 112.28 10.8082 112.663 10.8793C113.052 10.9503 113.34 11.0142 113.53 11.071L112.99 13.3438C112.872 13.3059 112.725 13.2704 112.55 13.2372C112.379 13.2041 112.204 13.1875 112.024 13.1875C111.579 13.1875 111.269 13.2917 111.094 13.5C110.918 13.7036 110.831 13.9901 110.831 14.3594V26H107.812ZM119.391 26.2131C118.288 26.2131 117.334 25.9787 116.529 25.5099C115.729 25.0365 115.111 24.3783 114.675 23.5355C114.239 22.688 114.022 21.7055 114.022 20.5881C114.022 19.4612 114.239 18.4763 114.675 17.6335C115.111 16.786 115.729 16.1278 116.529 15.6591C117.334 15.1856 118.288 14.9489 119.391 14.9489C120.494 14.9489 121.446 15.1856 122.246 15.6591C123.051 16.1278 123.671 16.786 124.107 17.6335C124.542 18.4763 124.76 19.4612 124.76 20.5881C124.76 21.7055 124.542 22.688 124.107 23.5355C123.671 24.3783 123.051 25.0365 122.246 25.5099C121.446 25.9787 120.494 26.2131 119.391 26.2131ZM119.405 23.8693C119.907 23.8693 120.326 23.7273 120.662 23.4432C120.998 23.1544 121.252 22.7614 121.422 22.2642C121.597 21.767 121.685 21.2012 121.685 20.5668C121.685 19.9323 121.597 19.3665 121.422 18.8693C121.252 18.3722 120.998 17.9792 120.662 17.6903C120.326 17.4015 119.907 17.2571 119.405 17.2571C118.898 17.2571 118.472 17.4015 118.127 17.6903C117.786 17.9792 117.528 18.3722 117.353 18.8693C117.182 19.3665 117.097 19.9323 117.097 20.5668C117.097 21.2012 117.182 21.767 117.353 22.2642C117.528 22.7614 117.786 23.1544 118.127 23.4432C118.472 23.7273 118.898 23.8693 119.405 23.8693ZM129.753 11.4545V26H126.728V11.4545H129.753ZM132.177 26V15.0909H135.202V26H132.177ZM133.697 13.6847C133.247 13.6847 132.861 13.5355 132.539 13.2372C132.222 12.9342 132.063 12.572 132.063 12.1506C132.063 11.7339 132.222 11.3764 132.539 11.0781C132.861 10.7751 133.247 10.6236 133.697 10.6236C134.146 10.6236 134.53 10.7751 134.847 11.0781C135.169 11.3764 135.33 11.7339 135.33 12.1506C135.33 12.572 135.169 12.9342 134.847 13.2372C134.53 13.5355 134.146 13.6847 133.697 13.6847ZM142.555 26.2131C141.452 26.2131 140.498 25.9787 139.693 25.5099C138.893 25.0365 138.275 24.3783 137.839 23.5355C137.403 22.688 137.186 21.7055 137.186 20.5881C137.186 19.4612 137.403 18.4763 137.839 17.6335C138.275 16.786 138.893 16.1278 139.693 15.6591C140.498 15.1856 141.452 14.9489 142.555 14.9489C143.658 14.9489 144.61 15.1856 145.41 15.6591C146.215 16.1278 146.835 16.786 147.271 17.6335C147.706 18.4763 147.924 19.4612 147.924 20.5881C147.924 21.7055 147.706 22.688 147.271 23.5355C146.835 24.3783 146.215 25.0365 145.41 25.5099C144.61 25.9787 143.658 26.2131 142.555 26.2131ZM142.569 23.8693C143.071 23.8693 143.49 23.7273 143.826 23.4432C144.162 23.1544 144.416 22.7614 144.586 22.2642C144.761 21.767 144.849 21.2012 144.849 20.5668C144.849 19.9323 144.761 19.3665 144.586 18.8693C144.416 18.3722 144.162 17.9792 143.826 17.6903C143.49 17.4015 143.071 17.2571 142.569 17.2571C142.063 17.2571 141.636 17.4015 141.291 17.6903C140.95 17.9792 140.692 18.3722 140.517 18.8693C140.346 19.3665 140.261 19.9323 140.261 20.5668C140.261 21.2012 140.346 21.767 140.517 22.2642C140.692 22.7614 140.95 23.1544 141.291 23.4432C141.636 23.7273 142.063 23.8693 142.569 23.8693ZM163.703 14.4602V28.8125H162.851V14.4602H163.703ZM180.064 26V15.0909H181.385V24.8281H186.456V26H180.064ZM191.655 26.1705C190.916 26.1705 190.268 25.9947 189.711 25.6431C189.157 25.2915 188.723 24.7997 188.411 24.1676C188.102 23.5355 187.947 22.7969 187.947 21.9517C187.947 21.0994 188.102 20.3555 188.411 19.7198C188.723 19.0842 189.157 18.5906 189.711 18.239C190.268 17.8874 190.916 17.7116 191.655 17.7116C192.393 17.7116 193.04 17.8874 193.594 18.239C194.151 18.5906 194.584 19.0842 194.893 19.7198C195.206 20.3555 195.362 21.0994 195.362 21.9517C195.362 22.7969 195.206 23.5355 194.893 24.1676C194.584 24.7997 194.151 25.2915 193.594 25.6431C193.04 25.9947 192.393 26.1705 191.655 26.1705ZM191.655 25.0412C192.216 25.0412 192.677 24.8974 193.04 24.6097C193.402 24.3221 193.67 23.9439 193.844 23.4751C194.018 23.0064 194.105 22.4986 194.105 21.9517C194.105 21.4048 194.018 20.8952 193.844 20.4229C193.67 19.9506 193.402 19.5689 193.04 19.2777C192.677 18.9865 192.216 18.8409 191.655 18.8409C191.094 18.8409 190.632 18.9865 190.27 19.2777C189.908 19.5689 189.639 19.9506 189.465 20.4229C189.291 20.8952 189.204 21.4048 189.204 21.9517C189.204 22.4986 189.291 23.0064 189.465 23.4751C189.639 23.9439 189.908 24.3221 190.27 24.6097C190.632 24.8974 191.094 25.0412 191.655 25.0412ZM197.281 26V17.8182H198.496V19.054H198.581C198.73 18.6491 199 18.3207 199.39 18.0685C199.781 17.8164 200.221 17.6903 200.711 17.6903C200.804 17.6903 200.919 17.6921 201.058 17.6957C201.196 17.6992 201.301 17.7045 201.372 17.7116V18.9901C201.329 18.9794 201.232 18.9634 201.079 18.9421C200.93 18.9173 200.772 18.9048 200.605 18.9048C200.207 18.9048 199.852 18.9883 199.54 19.1552C199.231 19.3185 198.986 19.5458 198.805 19.837C198.627 20.1246 198.538 20.4531 198.538 20.8224V26H197.281ZM206.044 26.1705C205.255 26.1705 204.575 25.9964 204.003 25.6484C203.435 25.2969 202.997 24.8068 202.688 24.1783C202.382 23.5462 202.23 22.8111 202.23 21.973C202.23 21.1349 202.382 20.3963 202.688 19.7571C202.997 19.1143 203.426 18.6136 203.977 18.255C204.531 17.8928 205.177 17.7116 205.916 17.7116C206.342 17.7116 206.763 17.7827 207.178 17.9247C207.594 18.0668 207.972 18.2976 208.313 18.6172C208.654 18.9332 208.925 19.3523 209.128 19.8743C209.33 20.3963 209.431 21.0391 209.431 21.8026V22.3352H203.124V21.2486H208.153C208.153 20.7869 208.061 20.375 207.876 20.0128C207.695 19.6506 207.436 19.3647 207.098 19.1552C206.764 18.9457 206.37 18.8409 205.916 18.8409C205.415 18.8409 204.982 18.9652 204.616 19.2138C204.254 19.4588 203.975 19.7784 203.78 20.1726C203.584 20.5668 203.487 20.9893 203.487 21.4403V22.1648C203.487 22.7827 203.593 23.3065 203.806 23.7362C204.023 24.1623 204.323 24.4872 204.707 24.7109C205.09 24.9311 205.536 25.0412 206.044 25.0412C206.374 25.0412 206.672 24.995 206.938 24.9027C207.208 24.8068 207.441 24.6648 207.636 24.4766C207.832 24.2848 207.982 24.0469 208.089 23.7628L209.303 24.1037C209.176 24.5156 208.961 24.8778 208.659 25.1903C208.357 25.4993 207.984 25.7408 207.54 25.9148C207.096 26.0852 206.597 26.1705 206.044 26.1705ZM212.601 21.0781V26H211.344V17.8182H212.558V19.0966H212.665C212.856 18.6811 213.148 18.3473 213.538 18.0952C213.929 17.8395 214.433 17.7116 215.051 17.7116C215.605 17.7116 216.09 17.8253 216.505 18.0526C216.921 18.2763 217.244 18.6172 217.475 19.0753C217.705 19.5298 217.821 20.1051 217.821 20.8011V26H216.564V20.8864C216.564 20.2436 216.397 19.7429 216.063 19.3842C215.729 19.022 215.271 18.8409 214.689 18.8409C214.287 18.8409 213.929 18.9279 213.613 19.1019C213.3 19.2759 213.053 19.5298 212.872 19.8636C212.691 20.1974 212.601 20.6023 212.601 21.0781ZM222.526 26.1918C222.007 26.1918 221.537 26.0941 221.114 25.8988C220.692 25.6999 220.356 25.4141 220.107 25.0412C219.859 24.6648 219.734 24.2102 219.734 23.6776C219.734 23.2088 219.827 22.8288 220.011 22.5376C220.196 22.2429 220.443 22.0121 220.752 21.8452C221.061 21.6783 221.402 21.554 221.775 21.4723C222.151 21.3871 222.529 21.3196 222.909 21.2699C223.406 21.206 223.809 21.158 224.118 21.1261C224.431 21.0906 224.658 21.032 224.8 20.9503C224.946 20.8686 225.019 20.7266 225.019 20.5241V20.4815C225.019 19.956 224.875 19.5476 224.587 19.2564C224.303 18.9652 223.872 18.8196 223.293 18.8196C222.693 18.8196 222.222 18.951 221.881 19.2138C221.54 19.4766 221.301 19.7571 221.162 20.0554L219.969 19.6293C220.182 19.1321 220.466 18.745 220.821 18.468C221.18 18.1875 221.57 17.9922 221.993 17.8821C222.419 17.7685 222.838 17.7116 223.25 17.7116C223.513 17.7116 223.815 17.7436 224.156 17.8075C224.5 17.8679 224.832 17.994 225.152 18.1857C225.475 18.3775 225.743 18.6669 225.956 19.054C226.169 19.4411 226.276 19.9595 226.276 20.6094V26H225.019V24.892H224.955C224.869 25.0696 224.727 25.2596 224.529 25.462C224.33 25.6644 224.065 25.8366 223.735 25.9787C223.405 26.1207 223.002 26.1918 222.526 26.1918ZM222.717 25.0625C223.215 25.0625 223.634 24.9648 223.975 24.7695C224.319 24.5742 224.578 24.3221 224.752 24.0131C224.93 23.7042 225.019 23.3793 225.019 23.0384V21.8878C224.965 21.9517 224.848 22.0103 224.667 22.0636C224.489 22.1133 224.283 22.1577 224.049 22.1967C223.818 22.2322 223.593 22.2642 223.373 22.2926C223.156 22.3175 222.98 22.3388 222.845 22.3565C222.519 22.3991 222.213 22.4684 221.929 22.5643C221.649 22.6566 221.421 22.7969 221.247 22.9851C221.077 23.1697 220.992 23.4219 220.992 23.7415C220.992 24.1783 221.153 24.5085 221.476 24.7322C221.803 24.9524 222.217 25.0625 222.717 25.0625ZM241.738 18.5H240.417C240.339 18.12 240.202 17.7862 240.007 17.4986C239.815 17.2109 239.58 16.9695 239.303 16.7741C239.03 16.5753 238.726 16.4261 238.393 16.3267C238.059 16.2273 237.711 16.1776 237.349 16.1776C236.688 16.1776 236.09 16.3445 235.553 16.6783C235.021 17.0121 234.596 17.5039 234.28 18.1538C233.968 18.8036 233.812 19.6009 233.812 20.5455C233.812 21.4901 233.968 22.2873 234.28 22.9371C234.596 23.587 235.021 24.0788 235.553 24.4126C236.09 24.7464 236.688 24.9134 237.349 24.9134C237.711 24.9134 238.059 24.8636 238.393 24.7642C238.726 24.6648 239.03 24.5174 239.303 24.3221C239.58 24.1232 239.815 23.88 240.007 23.5923C240.202 23.3011 240.339 22.9673 240.417 22.5909H241.738C241.638 23.1484 241.457 23.6474 241.194 24.0877C240.932 24.5281 240.605 24.9027 240.214 25.2116C239.824 25.517 239.385 25.7496 238.899 25.9094C238.416 26.0692 237.899 26.1491 237.349 26.1491C236.418 26.1491 235.591 25.9219 234.866 25.4673C234.142 25.0128 233.572 24.3665 233.156 23.5284C232.741 22.6903 232.533 21.696 232.533 20.5455C232.533 19.3949 232.741 18.4006 233.156 17.5625C233.572 16.7244 234.142 16.0781 234.866 15.6236C235.591 15.169 236.418 14.9418 237.349 14.9418C237.899 14.9418 238.416 15.0217 238.899 15.1815C239.385 15.3413 239.824 15.5756 240.214 15.8846C240.605 16.19 240.932 16.5629 241.194 17.0032C241.457 17.44 241.638 17.9389 241.738 18.5ZM247.132 26.1705C246.344 26.1705 245.664 25.9964 245.092 25.6484C244.524 25.2969 244.086 24.8068 243.777 24.1783C243.471 23.5462 243.318 22.8111 243.318 21.973C243.318 21.1349 243.471 20.3963 243.777 19.7571C244.086 19.1143 244.515 18.6136 245.066 18.255C245.62 17.8928 246.266 17.7116 247.005 17.7116C247.431 17.7116 247.851 17.7827 248.267 17.9247C248.682 18.0668 249.061 18.2976 249.402 18.6172C249.742 18.9332 250.014 19.3523 250.217 19.8743C250.419 20.3963 250.52 21.0391 250.52 21.8026V22.3352H244.213V21.2486H249.242C249.242 20.7869 249.149 20.375 248.965 20.0128C248.784 19.6506 248.524 19.3647 248.187 19.1552C247.853 18.9457 247.459 18.8409 247.005 18.8409C246.504 18.8409 246.071 18.9652 245.705 19.2138C245.343 19.4588 245.064 19.7784 244.869 20.1726C244.673 20.5668 244.576 20.9893 244.576 21.4403V22.1648C244.576 22.7827 244.682 23.3065 244.895 23.7362C245.112 24.1623 245.412 24.4872 245.795 24.7109C246.179 24.9311 246.625 25.0412 247.132 25.0412C247.463 25.0412 247.761 24.995 248.027 24.9027C248.297 24.8068 248.53 24.6648 248.725 24.4766C248.92 24.2848 249.071 24.0469 249.178 23.7628L250.392 24.1037C250.264 24.5156 250.05 24.8778 249.748 25.1903C249.446 25.4993 249.073 25.7408 248.629 25.9148C248.185 26.0852 247.686 26.1705 247.132 26.1705ZM252.603 26V15.0909H253.86V19.1179H253.967C254.059 18.9759 254.187 18.7947 254.35 18.5746C254.517 18.3509 254.755 18.152 255.064 17.978C255.376 17.8004 255.799 17.7116 256.332 17.7116C257.021 17.7116 257.628 17.8839 258.153 18.2283C258.679 18.5728 259.089 19.0611 259.384 19.6932C259.679 20.3253 259.826 21.071 259.826 21.9304C259.826 22.7969 259.679 23.5479 259.384 24.1836C259.089 24.8157 258.681 25.3058 258.159 25.6538C257.637 25.9982 257.035 26.1705 256.353 26.1705C255.827 26.1705 255.407 26.0835 255.09 25.9094C254.774 25.7319 254.531 25.5312 254.361 25.3075C254.19 25.0803 254.059 24.892 253.967 24.7429H253.817V26H252.603ZM253.839 21.9091C253.839 22.527 253.929 23.0721 254.11 23.5444C254.291 24.0131 254.556 24.3807 254.904 24.647C255.252 24.9098 255.678 25.0412 256.182 25.0412C256.708 25.0412 257.147 24.9027 257.498 24.6257C257.853 24.3452 258.12 23.9687 258.297 23.4964C258.478 23.0206 258.569 22.4915 258.569 21.9091C258.569 21.3338 258.48 20.8153 258.302 20.3537C258.128 19.8885 257.864 19.521 257.509 19.2511C257.157 18.9776 256.715 18.8409 256.182 18.8409C255.671 18.8409 255.241 18.9705 254.893 19.2298C254.545 19.4854 254.283 19.8441 254.105 20.3058C253.927 20.7638 253.839 21.2983 253.839 21.9091ZM264.157 26.1918C263.638 26.1918 263.168 26.0941 262.745 25.8988C262.322 25.6999 261.987 25.4141 261.738 25.0412C261.49 24.6648 261.365 24.2102 261.365 23.6776C261.365 23.2088 261.458 22.8288 261.642 22.5376C261.827 22.2429 262.074 22.0121 262.383 21.8452C262.692 21.6783 263.033 21.554 263.405 21.4723C263.782 21.3871 264.16 21.3196 264.54 21.2699C265.037 21.206 265.44 21.158 265.749 21.1261C266.062 21.0906 266.289 21.032 266.431 20.9503C266.577 20.8686 266.649 20.7266 266.649 20.5241V20.4815C266.649 19.956 266.506 19.5476 266.218 19.2564C265.934 18.9652 265.502 18.8196 264.924 18.8196C264.323 18.8196 263.853 18.951 263.512 19.2138C263.171 19.4766 262.931 19.7571 262.793 20.0554L261.6 19.6293C261.813 19.1321 262.097 18.745 262.452 18.468C262.811 18.1875 263.201 17.9922 263.624 17.8821C264.05 17.7685 264.469 17.7116 264.881 17.7116C265.144 17.7116 265.446 17.7436 265.787 17.8075C266.131 17.8679 266.463 17.994 266.783 18.1857C267.106 18.3775 267.374 18.6669 267.587 19.054C267.8 19.4411 267.907 19.9595 267.907 20.6094V26H266.649V24.892H266.586C266.5 25.0696 266.358 25.2596 266.159 25.462C265.961 25.6644 265.696 25.8366 265.366 25.9787C265.035 26.1207 264.632 26.1918 264.157 26.1918ZM264.348 25.0625C264.845 25.0625 265.264 24.9648 265.605 24.7695C265.95 24.5742 266.209 24.3221 266.383 24.0131C266.561 23.7042 266.649 23.3793 266.649 23.0384V21.8878C266.596 21.9517 266.479 22.0103 266.298 22.0636C266.12 22.1133 265.914 22.1577 265.68 22.1967C265.449 22.2322 265.224 22.2642 265.003 22.2926C264.787 22.3175 264.611 22.3388 264.476 22.3565C264.149 22.3991 263.844 22.4684 263.56 22.5643C263.279 22.6566 263.052 22.7969 262.878 22.9851C262.708 23.1697 262.622 23.4219 262.622 23.7415C262.622 24.1783 262.784 24.5085 263.107 24.7322C263.434 24.9524 263.848 25.0625 264.348 25.0625ZM271.458 15.0909V26H270.201V15.0909H271.458ZM275.018 15.0909V26H273.761V15.0909H275.018ZM280.644 26.1705C279.905 26.1705 279.257 25.9947 278.7 25.6431C278.146 25.2915 277.713 24.7997 277.4 24.1676C277.091 23.5355 276.937 22.7969 276.937 21.9517C276.937 21.0994 277.091 20.3555 277.4 19.7198C277.713 19.0842 278.146 18.5906 278.7 18.239C279.257 17.8874 279.905 17.7116 280.644 17.7116C281.383 17.7116 282.029 17.8874 282.583 18.239C283.14 18.5906 283.574 19.0842 283.883 19.7198C284.195 20.3555 284.351 21.0994 284.351 21.9517C284.351 22.7969 284.195 23.5355 283.883 24.1676C283.574 24.7997 283.14 25.2915 282.583 25.6431C282.029 25.9947 281.383 26.1705 280.644 26.1705ZM280.644 25.0412C281.205 25.0412 281.667 24.8974 282.029 24.6097C282.391 24.3221 282.659 23.9439 282.833 23.4751C283.007 23.0064 283.094 22.4986 283.094 21.9517C283.094 21.4048 283.007 20.8952 282.833 20.4229C282.659 19.9506 282.391 19.5689 282.029 19.2777C281.667 18.9865 281.205 18.8409 280.644 18.8409C280.083 18.8409 279.621 18.9865 279.259 19.2777C278.897 19.5689 278.629 19.9506 278.455 20.4229C278.281 20.8952 278.194 21.4048 278.194 21.9517C278.194 22.4986 278.281 23.0064 278.455 23.4751C278.629 23.9439 278.897 24.3221 279.259 24.6097C279.621 24.8974 280.083 25.0412 280.644 25.0412ZM292.066 19.6506L290.937 19.9702C290.866 19.782 290.761 19.5991 290.622 19.4215C290.487 19.2404 290.303 19.0913 290.068 18.9741C289.834 18.8569 289.534 18.7983 289.168 18.7983C288.667 18.7983 288.25 18.9137 287.916 19.1445C287.586 19.3718 287.421 19.6612 287.421 20.0128C287.421 20.3253 287.535 20.5721 287.762 20.7532C287.989 20.9343 288.344 21.0852 288.827 21.206L290.042 21.5043C290.773 21.6818 291.318 21.9535 291.677 22.3192C292.036 22.6815 292.215 23.1484 292.215 23.7202C292.215 24.1889 292.08 24.608 291.81 24.9773C291.544 25.3466 291.171 25.6378 290.692 25.8509C290.212 26.0639 289.655 26.1705 289.019 26.1705C288.184 26.1705 287.494 25.9893 286.947 25.6271C286.4 25.2649 286.054 24.7358 285.908 24.0398L287.101 23.7415C287.215 24.1818 287.43 24.5121 287.746 24.7322C288.065 24.9524 288.483 25.0625 288.998 25.0625C289.584 25.0625 290.049 24.9382 290.393 24.6896C290.741 24.4375 290.915 24.1357 290.915 23.7841C290.915 23.5 290.816 23.2621 290.617 23.0703C290.418 22.875 290.113 22.7294 289.701 22.6335L288.337 22.3139C287.588 22.1364 287.037 21.8612 286.686 21.4883C286.338 21.1119 286.164 20.6413 286.164 20.0767C286.164 19.6151 286.293 19.2067 286.553 18.8516C286.815 18.4964 287.172 18.2177 287.623 18.0153C288.078 17.8129 288.593 17.7116 289.168 17.7116C289.978 17.7116 290.613 17.8892 291.075 18.2443C291.54 18.5994 291.87 19.0682 292.066 19.6506Z" fill="black"/>
<path d="M19.5 34C30.2696 34 39 26.3888 39 17C39 7.61116 30.2696 0 19.5 0C8.73045 0 0 7.61116 0 17C0 26.3888 8.73045 34 19.5 34Z" fill="#5267DF"/>
<path fill-rule="evenodd" clip-rule="evenodd" d="M14.0401 12.24V25.84L19.5625 21.1616L25.0818 25.84V12.24C25.0818 11.5186 24.7531 10.8268 24.168 10.3167C23.5828 9.80659 22.7893 9.52002 21.9618 9.52002H17.1601C16.3326 9.52002 15.539 9.80659 14.9539 10.3167C14.3688 10.8268 14.0401 11.5186 14.0401 12.24Z" fill="white"/>
</g>
<defs>
<clipPath id="clip0_105_75">
<rect width="293" height="34" fill="white"/>
</clipPath>
</defs>
</svg>
