<svg width="492" height="337" viewBox="0 0 492 337" fill="none" xmlns="http://www.w3.org/2000/svg">
<path d="M491.595 291.896H0V292.142H491.595V291.896Z" fill="#E6E6E6"/>
<path d="M105.044 301.227H71.2222V301.472H105.044V301.227Z" fill="#E6E6E6"/>
<path d="M293.207 302.977H283.099V303.222H293.207V302.977Z" fill="#E6E6E6"/>
<path d="M134.363 304.727H115.328V304.973H134.363V304.727Z" fill="#E6E6E6"/>
<path d="M412.733 304.147H387.485V304.393H412.733V304.147Z" fill="#E6E6E6"/>
<path d="M370.269 300.656H353.024V300.902H370.269V300.656Z" fill="#E6E6E6"/>
<path d="M268.892 300.263H176.787V300.509H268.892V300.263Z" fill="#E6E6E6"/>
<path d="M385.548 232.413H219.379V289.074H385.548V232.413Z" fill="#F0F0F0"/>
<path d="M166.896 164.534H326.537C331.203 164.544 335.674 166.405 338.97 169.708C342.265 173.011 344.116 177.486 344.116 182.152V245.224H149.278V182.152C149.278 177.48 151.134 172.998 154.438 169.694C157.742 166.39 162.224 164.534 166.896 164.534Z" fill="#E6E6E6"/>
<path d="M188.222 164.534H349.563C351.765 164.534 353.944 164.967 355.978 165.81C358.012 166.652 359.86 167.887 361.417 169.444C362.973 171 364.208 172.848 365.05 174.882C365.893 176.916 366.326 179.096 366.326 181.297V245.204H171.458V181.297C171.458 176.851 173.225 172.587 176.368 169.444C179.512 166.3 183.776 164.534 188.222 164.534Z" fill="#FAFAFA"/>
<path d="M224.934 227.242H384.427C385.783 227.242 387.083 227.78 388.042 228.739C389.001 229.698 389.54 230.998 389.54 232.354V245.205C389.54 246.56 389.001 247.861 388.042 248.82C387.083 249.778 385.783 250.317 384.427 250.317H224.934C224.53 250.317 224.142 250.157 223.856 249.871C223.571 249.585 223.41 249.197 223.41 248.793V228.766C223.41 228.361 223.571 227.974 223.856 227.688C224.142 227.402 224.53 227.242 224.934 227.242Z" fill="#E6E6E6"/>
<path d="M140.911 195.75C140.37 195.75 139.829 195.75 139.279 195.799C135.853 196.041 132.523 197.038 129.528 198.718C126.532 200.398 123.946 202.721 121.954 205.518C119.962 208.316 118.613 211.519 118.005 214.899C117.396 218.279 117.543 221.752 118.435 225.069C120.975 234.972 122.201 245.167 122.083 255.39V285.161C122.083 286.204 122.497 287.205 123.235 287.942C123.972 288.68 124.972 289.094 126.015 289.094H220.51V195.75H140.911Z" fill="#F0F0F0"/>
<path d="M243.762 219.022C243.763 212.981 241.414 207.176 237.212 202.835C233.011 198.494 227.286 195.957 221.247 195.76C215.209 195.564 209.331 197.723 204.856 201.781C200.381 205.84 197.66 211.479 197.267 217.508C197.094 220.056 197.346 222.614 198.014 225.079C200.554 234.982 201.781 245.177 201.662 255.4V285.171C201.662 286.214 202.076 287.214 202.814 287.952C203.551 288.69 204.552 289.104 205.595 289.104H235.435C236.478 289.104 237.478 288.69 238.215 287.952C238.953 287.214 239.367 286.214 239.367 285.171V253.65C239.281 244.063 240.492 234.508 242.966 225.246C243.511 223.217 243.779 221.123 243.762 219.022Z" fill="#FAFAFA"/>
<path d="M286.157 26.3662H117.884V108.305H286.157V26.3662Z" fill="#E0E0E0"/>
<path d="M294.239 26.3662H123.508V108.305H294.239V26.3662Z" fill="#F5F5F5"/>
<path d="M287.78 101.855V32.8257L129.968 32.8257V101.855L287.78 101.855Z" fill="white"/>
<path d="M272.225 73.5003V61.1613C272.225 54.7484 267.027 49.5498 260.614 49.5498L157.133 49.5498C150.72 49.5498 145.522 54.7484 145.522 61.1613V73.5003C145.522 79.9131 150.72 85.1118 157.133 85.1118H260.614C267.027 85.1118 272.225 79.9131 272.225 73.5003Z" fill="#F5F5F5"/>
<path d="M366.513 76.0762H326.429V117.606H366.513V76.0762Z" fill="#E0E0E0"/>
<path d="M370.603 76.0762H331.531V117.606H370.603V76.0762Z" fill="#F5F5F5"/>
<path d="M367.329 114.342V79.3503H334.805V114.342H367.329Z" fill="white"/>
<path d="M351.067 88.0024L342.17 103.409H359.965L351.067 88.0024Z" fill="#F5F5F5"/>
<path d="M56.6514 218.747H34.4608V287.541H56.6514V218.747Z" fill="#E6E6E6"/>
<path d="M148.127 287.541H38.718V291.896H148.127V287.541Z" fill="#E6E6E6"/>
<path d="M56.6514 287.541H152.394V218.747H56.6514L56.6514 287.541Z" fill="#FAFAFA"/>
<path d="M65.3723 249.776H143.673V227.212H65.3723V249.776Z" fill="#F0F0F0"/>
<path d="M65.3723 279.065H143.673V256.501H65.3723V279.065Z" fill="#F0F0F0"/>
<path d="M113.932 240.043H95.1137C94.7034 240.04 94.3108 239.875 94.0216 239.584C93.7324 239.293 93.5701 238.9 93.5701 238.489C93.5727 238.081 93.7362 237.69 94.0251 237.401C94.314 237.112 94.7051 236.948 95.1137 236.946H113.932C114.341 236.948 114.732 237.112 115.021 237.401C115.31 237.69 115.473 238.081 115.476 238.489C115.476 238.9 115.313 239.293 115.024 239.584C114.735 239.875 114.342 240.04 113.932 240.043Z" fill="#FAFAFA"/>
<path d="M113.932 269.332H95.1137C94.7043 269.332 94.3117 269.169 94.0222 268.88C93.7328 268.59 93.5701 268.198 93.5701 267.788C93.5701 267.379 93.7328 266.986 94.0222 266.697C94.3117 266.407 94.7043 266.245 95.1137 266.245H113.932C114.341 266.245 114.734 266.407 115.023 266.697C115.313 266.986 115.476 267.379 115.476 267.788C115.476 268.198 115.313 268.59 115.023 268.88C114.734 269.169 114.341 269.332 113.932 269.332Z" fill="#FAFAFA"/>
<path d="M86.383 168.28H73.6016C73.9653 180.668 68.312 187.668 68.312 202.249C68.312 215.365 71.5172 217.823 80.0021 217.823C88.4871 217.823 91.6923 215.365 91.6923 202.249C91.6726 187.668 86.0094 180.668 86.383 168.28Z" fill="#FAFAFA"/>
<path d="M75.3418 217.351H84.6231V218.137C84.6231 218.299 84.5589 218.454 84.4446 218.568C84.3302 218.683 84.1752 218.747 84.0135 218.747H75.9514C75.7897 218.747 75.6347 218.683 75.5203 218.568C75.406 218.454 75.3418 218.299 75.3418 218.137V217.351Z" fill="#F3F7FF"/>
<path d="M65.9032 172.792H64.92V191.601H65.9032V172.792Z" fill="#E0E0E0"/>
<path d="M100.295 178.711H59.6599L66.6307 137.063H93.3341L100.295 178.711Z" fill="#EBEBEB"/>
<path d="M245.797 336.297C351.08 336.297 436.428 331.314 436.428 325.167C436.428 319.021 351.08 314.038 245.797 314.038C140.515 314.038 55.1667 319.021 55.1667 325.167C55.1667 331.314 140.515 336.297 245.797 336.297Z" fill="#F5F5F5"/>
<path d="M211.061 56.4421V294.374H357.458V56.4421H211.061ZM344.775 284.837H215.141V65.9692H344.755L344.775 284.837Z" fill="#3A499E"/>
<path opacity="0.6" d="M211.061 56.4421V294.374H357.458V56.4421H211.061ZM344.775 284.837H215.141V65.9692H344.755L344.775 284.837Z" fill="white"/>
<path d="M215.141 65.9692H213.775V284.837H215.141V65.9692Z" fill="white"/>
<path d="M215.141 65.9692H213.775V284.837H215.141V65.9692Z" fill="#F0F0F0"/>
<path d="M372.806 0.744385H108.574C106.295 0.749516 104.111 1.65423 102.496 3.26167C100.881 4.86911 99.9665 7.04921 99.951 9.32763V315.837C99.9588 318.12 100.87 320.308 102.486 321.922C104.101 323.536 106.29 324.444 108.574 324.45H372.806C375.088 324.444 377.276 323.535 378.89 321.921C380.504 320.307 381.413 318.12 381.418 315.837V9.32763C381.405 7.05011 380.493 4.86999 378.88 3.26228C377.266 1.65456 375.083 0.749536 372.806 0.744385ZM215.141 65.9692H344.755V284.837H215.141V65.9692Z" fill="#3A499E"/>
<path opacity="0.5" d="M372.806 0.744385H108.574C106.295 0.749516 104.111 1.65423 102.496 3.26167C100.881 4.86911 99.9665 7.04921 99.951 9.32763V315.837C99.9588 318.12 100.87 320.308 102.486 321.922C104.101 323.536 106.29 324.444 108.574 324.45H372.806C375.088 324.444 377.276 323.535 378.89 321.921C380.504 320.307 381.413 318.12 381.418 315.837V9.32763C381.405 7.05011 380.493 4.86999 378.88 3.26228C377.266 1.65456 375.083 0.749536 372.806 0.744385ZM215.141 65.9692H344.755V284.837H215.141V65.9692Z" fill="black"/>
<path d="M370.515 0.744385H106.283C104.004 0.749516 101.82 1.65423 100.205 3.26167C98.5904 4.86911 97.6757 7.04921 97.6602 9.32763V315.837C97.6679 318.12 98.5792 320.308 100.195 321.922C101.81 323.536 103.999 324.444 106.283 324.45H370.515C372.797 324.442 374.983 323.532 376.596 321.918C378.21 320.305 379.12 318.119 379.128 315.837V9.32763C379.112 7.0509 378.199 4.87228 376.586 3.26512C374.973 1.65796 372.792 0.752102 370.515 0.744385ZM215.171 65.9692H344.755V284.837H215.141L215.171 65.9692Z" fill="#3A499E"/>
<path opacity="0.2" d="M370.515 0.744385H106.283C104.004 0.749516 101.82 1.65423 100.205 3.26167C98.5904 4.86911 97.6757 7.04921 97.6602 9.32763V315.837C97.6679 318.12 98.5792 320.308 100.195 321.922C101.81 323.536 103.999 324.444 106.283 324.45H370.515C372.797 324.442 374.983 323.532 376.596 321.918C378.21 320.305 379.12 318.119 379.128 315.837V9.32763C379.112 7.0509 378.199 4.87228 376.586 3.26512C374.973 1.65796 372.792 0.752102 370.515 0.744385ZM215.171 65.9692H344.755V284.837H215.141L215.171 65.9692Z" fill="black"/>
<path d="M97.6602 23.0234V315.837C97.6679 318.12 98.5792 320.308 100.195 321.922C101.81 323.536 103.999 324.444 106.283 324.45H370.515C372.797 324.442 374.983 323.532 376.596 321.918C378.21 320.305 379.12 318.119 379.128 315.837V23.0234H97.6602ZM215.141 65.9691H344.755V284.837H215.141V65.9691Z" fill="#3A499E"/>
<path opacity="0.6" d="M97.6602 23.0234V315.837C97.6679 318.12 98.5792 320.308 100.195 321.922C101.81 323.536 103.999 324.444 106.283 324.45H370.515C372.797 324.442 374.983 323.532 376.596 321.918C378.21 320.305 379.12 318.119 379.128 315.837V23.0234H97.6602ZM215.141 65.9691H344.755V284.837H215.141V65.9691Z" fill="white"/>
<path d="M99.3021 34.4775V312.995H377.545V34.4775H99.3021ZM344.804 284.837H215.141V65.9691H344.755L344.804 284.837Z" fill="white"/>
<path opacity="0.76" d="M360.221 16.5247C362.751 16.5247 364.802 14.4734 364.802 11.943C364.802 9.41261 362.751 7.36133 360.221 7.36133C357.69 7.36133 355.639 9.41261 355.639 11.943C355.639 14.4734 357.69 16.5247 360.221 16.5247Z" fill="#3A499E"/>
<path opacity="0.76" d="M343.988 16.5247C346.519 16.5247 348.57 14.4734 348.57 11.943C348.57 9.41261 346.519 7.36133 343.988 7.36133C341.458 7.36133 339.407 9.41261 339.407 11.943C339.407 14.4734 341.458 16.5247 343.988 16.5247Z" fill="#3A499E"/>
<path opacity="0.76" d="M323.174 11.943C323.174 12.8492 323.443 13.735 323.946 14.4884C324.45 15.2419 325.165 15.8291 326.003 16.1759C326.84 16.5227 327.761 16.6134 328.65 16.4366C329.539 16.2598 330.355 15.8235 330.996 15.1827C331.636 14.542 332.073 13.7256 332.25 12.8368C332.426 11.9481 332.336 11.0269 331.989 10.1897C331.642 9.35247 331.055 8.63692 330.301 8.13348C329.548 7.63004 328.662 7.36133 327.756 7.36133C326.541 7.36133 325.375 7.84404 324.516 8.70327C323.657 9.5625 323.174 10.7279 323.174 11.943Z" fill="#3A499E"/>
<path d="M97.67 23.5938L379.128 23.5938V22.4434L97.67 22.4434V23.5938Z" fill="#3A499E"/>
<path d="M384.86 56.4421H383.876V49.5598H384.86V56.4421ZM384.86 43.5722H383.876V21.126H384.86V43.5722Z" fill="#3A499E"/>
<path opacity="0.4" d="M384.86 56.4421H383.876V49.5598H384.86V56.4421ZM384.86 43.5722H383.876V21.126H384.86V43.5722Z" fill="black"/>
<path d="M145.541 127.094H173.258V113.32H145.541V127.094Z" fill="#3A499E"/>
<path opacity="0.6" d="M145.541 127.094H173.258V113.32H145.541V127.094Z" fill="white"/>
<path d="M125.74 218.029H177.023V204.255H125.74V218.029Z" fill="#3A499E"/>
<path opacity="0.6" d="M125.74 218.029H177.023V204.255H125.74V218.029Z" fill="white"/>
<path d="M79.6383 58.8901L185.695 58.8901V45.1156L79.6383 45.1156V58.8901Z" fill="#3A499E"/>
<path opacity="0.6" d="M79.6383 58.8901L185.695 58.8901V45.1156L79.6383 45.1156V58.8901Z" fill="white"/>
<path d="M79.6383 81.6216L165.333 81.6216V67.8471L79.6383 67.8471V81.6216Z" fill="#3A499E"/>
<path opacity="0.6" d="M79.6383 81.6216L165.333 81.6216V67.8471L79.6383 67.8471V81.6216Z" fill="white"/>
<path d="M79.6383 104.353L177.023 104.353V90.5783L79.6383 90.5783V104.353Z" fill="#3A499E"/>
<path opacity="0.6" d="M79.6383 104.353L177.023 104.353V90.5783L79.6383 90.5783V104.353Z" fill="white"/>
<path d="M79.6383 127.094H134.028V113.32H79.6383V127.094Z" fill="#3A499E"/>
<path opacity="0.6" d="M79.6383 127.094H134.028V113.32H79.6383V127.094Z" fill="white"/>
<path d="M79.6383 149.825H177.023V136.051H79.6383V149.825Z" fill="#3A499E"/>
<path opacity="0.6" d="M79.6383 149.825H177.023V136.051H79.6383V149.825Z" fill="white"/>
<path d="M79.6383 172.557H185.695V158.782H79.6383V172.557Z" fill="#3A499E"/>
<path opacity="0.6" d="M79.6383 172.557H185.695V158.782H79.6383V172.557Z" fill="white"/>
<path d="M79.6383 195.298H154.4V181.523H79.6383V195.298Z" fill="#3A499E"/>
<path opacity="0.6" d="M79.6383 195.298H154.4V181.523H79.6383V195.298Z" fill="white"/>
<path d="M79.6383 218.029H114.237V204.255H79.6383V218.029Z" fill="#3A499E"/>
<path opacity="0.6" d="M79.6383 218.029H114.237V204.255H79.6383V218.029Z" fill="white"/>
<path d="M232.995 92.3494C233.049 93.5216 232.679 94.6695 231.968 95.5405C231.257 96.4116 230.261 96.9346 229.201 96.9943C228.141 97.054 227.103 96.6456 226.315 95.8589C225.528 95.0722 225.055 93.9717 225.001 92.7995V91.7355C224.986 90.4677 225.174 89.2069 225.556 88.0114C225.955 86.7381 226.706 85.6358 227.703 84.8603C228.447 84.3388 229.302 84.0424 230.182 84.0008C230.304 83.9954 230.425 84.0165 230.539 84.0629C230.653 84.1093 230.758 84.1801 230.847 84.2714C230.937 84.3626 231.009 84.4723 231.06 84.5944C231.111 84.7166 231.14 84.8487 231.144 84.9831C231.145 85.2517 231.054 85.5106 230.889 85.708C230.724 85.9053 230.498 86.0264 230.256 86.047C229.706 86.0414 229.166 86.2119 228.702 86.5381C228.265 86.8744 227.909 87.3241 227.665 87.8477C227.57 87.9835 227.495 88.1356 227.443 88.2979C227.948 88.0661 228.488 87.9412 229.035 87.9296C230.088 87.9404 231.096 88.4108 231.837 89.2385C232.579 90.0662 232.995 91.1842 232.995 92.3494ZM231.181 92.3494C231.181 91.709 230.951 91.0948 230.542 90.642C230.132 90.1892 229.577 89.9349 228.998 89.9349C228.566 89.9349 228.144 90.0764 227.785 90.3418C227.426 90.6071 227.146 90.9841 226.98 91.4253C226.815 91.8665 226.772 92.3521 226.856 92.8204C226.94 93.2888 227.148 93.7191 227.454 94.0567C227.759 94.3944 228.148 94.6244 228.572 94.7175C228.995 94.8107 229.434 94.7628 229.833 94.58C230.232 94.3973 230.573 94.0879 230.813 93.6908C231.053 93.2937 231.181 92.8269 231.181 92.3494Z" fill="#263238"/>
<path d="M239.869 88.8418C240.18 89.2852 240.427 89.8134 240.596 90.3957C240.764 90.978 240.851 91.6029 240.851 92.2339C240.836 93.4911 240.483 94.6906 239.867 95.5797C239.25 96.4688 238.419 96.9779 237.547 97C237.115 96.9968 236.687 96.87 236.288 96.6268C235.89 96.3836 235.528 96.0289 235.226 95.5831C235.154 95.4867 235.098 95.3703 235.059 95.2411C235.02 95.1119 235 94.9726 235 94.8317C235 94.6909 235.02 94.5515 235.059 94.4222C235.098 94.293 235.154 94.1766 235.226 94.0802C235.295 93.9763 235.378 93.8937 235.47 93.8373C235.562 93.7809 235.661 93.7517 235.761 93.7517C235.861 93.7517 235.96 93.7809 236.052 93.8373C236.144 93.8937 236.228 93.9763 236.297 94.0802C236.465 94.32 236.665 94.5082 236.885 94.6336C237.105 94.759 237.341 94.8192 237.577 94.8102C237.813 94.8167 238.048 94.7555 238.268 94.6302C238.487 94.5049 238.688 94.318 238.857 94.0802C239.185 93.5793 239.376 92.9229 239.393 92.2339C239.393 91.8902 239.346 91.5498 239.254 91.2327C239.162 90.9156 239.027 90.6282 238.857 90.3876C238.689 90.1479 238.488 89.9597 238.269 89.8342C238.049 89.7088 237.813 89.6487 237.577 89.6576C237.341 89.6511 237.106 89.7124 236.886 89.8377C236.667 89.963 236.466 90.1499 236.297 90.3876C236.228 90.4915 236.144 90.5741 236.052 90.6306C235.96 90.687 235.861 90.7161 235.761 90.7161C235.661 90.7161 235.562 90.687 235.47 90.6306C235.378 90.5741 235.295 90.4915 235.226 90.3876V90.13V89.7864L235.642 84.8056C235.658 84.6516 235.695 84.504 235.751 84.3712C235.808 84.2384 235.882 84.1233 235.97 84.0327C236.087 83.9891 236.21 83.9891 236.327 84.0327H240.256C240.453 84.0327 240.642 84.1458 240.782 84.3471C240.922 84.5484 241 84.8215 241 85.1062C241 85.3909 240.922 85.664 240.782 85.8653C240.642 86.0666 240.453 86.1796 240.256 86.1796H236.982L236.803 88.1119C237.099 88.0471 237.4 88.0471 237.696 88.1119C238.458 87.9693 239.229 88.2285 239.869 88.8418Z" fill="#263238"/>
<path d="M243.018 87.2239C242.999 86.815 243.052 86.4059 243.175 86.0209C243.298 85.6358 243.488 85.2826 243.734 84.982C243.979 84.6815 244.276 84.4396 244.605 84.2709C244.935 84.1023 245.291 84.0102 245.653 84C246.01 84.0102 246.361 84.1012 246.687 84.2679C247.012 84.4345 247.304 84.6734 247.547 84.9702C247.789 85.267 247.977 85.6158 248.098 85.996C248.219 86.3762 248.271 86.78 248.252 87.1836C248.295 87.6015 248.26 88.0252 248.148 88.4266C248.036 88.8279 247.851 89.1979 247.603 89.5123C247.356 89.8266 247.053 90.0782 246.714 90.2505C246.375 90.4228 246.007 90.5119 245.635 90.5119C245.263 90.5119 244.896 90.4228 244.556 90.2505C244.217 90.0782 243.914 89.8266 243.667 89.5123C243.419 89.1979 243.234 88.8279 243.122 88.4266C243.01 88.0252 242.975 87.6015 243.018 87.1836V87.2239ZM246.864 87.2239C246.888 87.012 246.876 86.7965 246.826 86.5902C246.777 86.3838 246.692 86.1906 246.576 86.0219C246.46 85.8531 246.315 85.7121 246.151 85.6072C245.986 85.5022 245.805 85.4352 245.617 85.4104C244.869 85.4104 244.442 86.2164 244.442 87.1836C244.442 88.2313 244.941 89.0374 245.653 89.0374C246.365 89.0374 246.864 88.1911 246.864 87.2239ZM244.834 95.6464L252.169 84.3627C252.219 84.2541 252.297 84.165 252.392 84.1075C252.487 84.0499 252.596 84.0265 252.703 84.0402C252.786 84.0347 252.868 84.0483 252.946 84.0803C253.023 84.1123 253.094 84.1619 253.155 84.226C253.215 84.2902 253.262 84.3677 253.295 84.4536C253.328 84.5394 253.344 84.6319 253.344 84.7254C253.386 84.8831 253.386 85.0512 253.344 85.2089L246.009 96.4927C245.95 96.5921 245.871 96.6736 245.778 96.7298C245.684 96.7861 245.58 96.8154 245.475 96.8152C245.392 96.8207 245.31 96.807 245.232 96.7751C245.155 96.7431 245.084 96.6935 245.024 96.6293C244.964 96.5652 244.916 96.4877 244.883 96.4018C244.85 96.3159 244.834 96.2235 244.834 96.13C244.792 95.9722 244.792 95.8042 244.834 95.6464ZM249.748 93.6718C249.729 93.263 249.782 92.8539 249.905 92.4688C250.028 92.0837 250.218 91.7305 250.464 91.4299C250.709 91.1294 251.006 90.8875 251.335 90.7188C251.665 90.5502 252.021 90.458 252.383 90.4478C252.743 90.4578 253.098 90.5501 253.425 90.7192C253.753 90.8884 254.047 91.131 254.29 91.4322C254.533 91.7334 254.72 92.087 254.839 92.4719C254.957 92.8568 255.006 93.265 254.982 93.6718C255.025 94.0898 254.99 94.5133 254.878 94.9147C254.766 95.316 254.581 95.686 254.333 96.0004C254.086 96.3148 253.783 96.5664 253.444 96.7387C253.104 96.9109 252.737 97 252.365 97C251.993 97 251.625 96.9109 251.286 96.7387C250.947 96.5664 250.644 96.3148 250.397 96.0004C250.149 95.686 249.964 95.316 249.852 94.9147C249.74 94.5133 249.705 94.0898 249.748 93.6718ZM253.593 93.6718C253.618 93.4599 253.606 93.2445 253.556 93.0381C253.507 92.8317 253.422 92.6384 253.306 92.4696C253.19 92.3009 253.045 92.1599 252.881 92.0549C252.716 91.95 252.535 91.8832 252.347 91.8583C251.599 91.8583 251.172 92.6643 251.172 93.6718C251.172 94.7196 251.671 95.5255 252.383 95.5255C253.095 95.5255 253.593 94.5181 253.593 93.6718Z" fill="#263238"/>
<path d="M337.224 199.401C337.103 199.402 336.985 199.367 336.878 199.298C336.772 199.229 336.681 199.129 336.614 199.007L315.049 160.663L293.171 189.106L270.832 171.353L249.221 177.466L227.271 199.201C227.119 199.352 226.924 199.423 226.729 199.398C226.533 199.374 226.354 199.256 226.231 199.07C226.107 198.884 226.049 198.646 226.069 198.408C226.089 198.17 226.186 197.952 226.338 197.801L248.554 175.803L271.114 169.421L292.945 186.774L315.233 157.794L337.834 197.988C337.911 198.123 337.956 198.281 337.964 198.445C337.972 198.609 337.944 198.772 337.882 198.918C337.819 199.063 337.725 199.185 337.61 199.27C337.495 199.355 337.364 199.401 337.229 199.401H337.224Z" fill="#263238"/>
<path d="M228.661 198.501C228.661 198.942 228.553 199.374 228.352 199.741C228.151 200.108 227.865 200.394 227.531 200.563C227.196 200.732 226.828 200.776 226.473 200.69C226.118 200.604 225.792 200.391 225.536 200.079C225.28 199.767 225.106 199.369 225.035 198.936C224.965 198.503 225.001 198.055 225.139 197.647C225.278 197.239 225.512 196.891 225.813 196.645C226.114 196.4 226.468 196.269 226.83 196.269C227.316 196.269 227.781 196.504 228.125 196.923C228.468 197.341 228.661 197.909 228.661 198.501Z" fill="#8BBFF7"/>
<path d="M248.888 178.866C249.898 178.866 250.718 177.867 250.718 176.635C250.718 175.402 249.898 174.403 248.888 174.403C247.877 174.403 247.057 175.402 247.057 176.635C247.057 177.867 247.877 178.866 248.888 178.866Z" fill="#8BBFF7"/>
<path d="M270.97 172.615C271.981 172.615 272.801 171.616 272.801 170.383C272.801 169.151 271.981 168.152 270.97 168.152C269.959 168.152 269.14 169.151 269.14 170.383C269.14 171.616 269.959 172.615 270.97 172.615Z" fill="#8BBFF7"/>
<path d="M293.053 190.168C294.064 190.168 294.884 189.169 294.884 187.937C294.884 186.704 294.064 185.705 293.053 185.705C292.042 185.705 291.223 186.704 291.223 187.937C291.223 189.169 292.042 190.168 293.053 190.168Z" fill="#8BBFF7"/>
<path d="M316.966 159.232C316.966 159.673 316.859 160.104 316.658 160.471C316.457 160.838 316.171 161.124 315.836 161.293C315.502 161.462 315.134 161.507 314.779 161.42C314.424 161.334 314.098 161.122 313.842 160.81C313.586 160.498 313.411 160.1 313.341 159.667C313.27 159.234 313.306 158.785 313.445 158.378C313.583 157.97 313.818 157.621 314.119 157.376C314.42 157.131 314.774 157 315.136 157C315.621 157 316.087 157.235 316.43 157.654C316.773 158.072 316.966 158.64 316.966 159.232Z" fill="#8BBFF7"/>
<path d="M339.049 198.501C339.049 198.942 338.942 199.374 338.741 199.741C338.539 200.108 338.254 200.394 337.919 200.563C337.585 200.732 337.217 200.776 336.862 200.69C336.507 200.604 336.18 200.391 335.924 200.079C335.668 199.767 335.494 199.369 335.423 198.936C335.353 198.503 335.389 198.055 335.528 197.647C335.666 197.239 335.901 196.891 336.202 196.645C336.503 196.4 336.857 196.269 337.219 196.269C337.704 196.269 338.17 196.504 338.513 196.923C338.856 197.341 339.049 197.909 339.049 198.501Z" fill="#8BBFF7"/>
<path d="M204.258 56.4421V294.374H354.273V56.4421H204.258ZM344.755 284.837H215.141V65.9692H344.755V284.837Z" fill="#3A499E"/>
<path opacity="0.8" d="M204.258 56.4421V294.374H354.273V56.4421H204.258ZM344.755 284.837H215.141V65.9692H344.755V284.837Z" fill="white"/>
</svg>
